<?xml version="1.0" encoding="UTF-8"?>
<svg width="273px" height="243px" viewBox="0 0 273 243" version="1.1" xmlns="http://www.w3.org/2000/svg" xmlns:xlink="http://www.w3.org/1999/xlink">
    <!-- Generator: sketchtool 52.1 (67048) - http://www.bohemiancoding.com/sketch -->
    <title>503BA691-0481-4BB4-8D7E-89010E1F947A</title>
    <desc>Created with sketchtool.</desc>
    <g id="Home-Page" stroke="none" stroke-width="1" fill="none" fill-rule="evenodd">
        <g id="BVS-Home-Page" transform="translate(-872.000000, 0.000000)">
            <g id="light-blue" transform="translate(995.995038, 23.481520) rotate(-160.000000) translate(-995.995038, -23.481520) translate(824.995038, -217.018480)">
                <g id="Head/Front/Wavy" transform="translate(83.383211, 0.323764)">
                    <g id="Head" stroke-width="1" transform="translate(61.619632, 35.116800)" fill="#B28B67">
                        <path d="M9.42811621,39.0704156 C4.17001085,32.9433826 0.611215164,25.4346192 1.20589201,17.0208342 C2.9193216,-7.22162331 36.9130472,-1.88859154 43.5255307,10.3469192 C50.1380141,22.58243 49.3522791,53.6188177 40.8062335,55.8056447 C37.3980823,56.6777484 30.1377069,54.5414437 22.7483386,50.1199498 L27.3865031,82.6944 L0,82.6944 L9.42811621,39.0704156 Z"></path>
                    </g>
                    <path d="M107.730625,50.9574592 C107.459348,49.3714829 106.796365,47.6102733 106.261416,46.1097907 C105.57173,44.1754708 104.528005,42.4314372 103.379412,40.7877574 C101.21698,37.6931929 98.6228758,34.898725 95.7587326,32.5793938 C90.5270202,28.3429186 83.8673036,25.8993031 77.3182904,26.6928702 C74.0116869,27.0935135 70.8018163,28.3456204 68.0697745,30.4296991 C65.6014051,32.3126842 63.2271159,35.0845725 60.0308622,35.2837362 C56.553075,35.5002689 53.3651329,32.4529865 50.575971,30.5709664 C47.4311785,28.4492551 44.0856696,26.9032272 40.4101723,26.3022622 C34.2528656,25.2958292 28.46852,27.3609951 24.2250042,32.3759843 C19.7093277,37.7126847 16.4267748,45.5389318 19.3922488,52.6100165 C19.9434673,53.9244585 20.6526063,55.0325963 21.6703356,55.9510267 C22.603711,56.7932269 24.0292395,57.6892707 24.4076827,59.0349769 C24.809646,60.4654048 23.6088845,62.3107572 23.1432579,63.6014617 C22.4762075,65.4506739 21.9285258,67.3917483 22.1232296,69.4017196 C22.4431379,72.7025883 24.5327104,75.8536983 26.7391759,78.0232707 C28.9845468,80.2310548 31.7480666,81.4970569 34.6997469,82.0806529 C36.6706581,82.4702959 38.6848956,82.6852847 40.6879921,82.5389997 C41.6823782,82.4664362 42.5598714,82.1922001 43.52331,81.9741235 C44.4602223,81.7620296 44.9838533,82.0090543 45.7787609,82.5191219 C49.4714119,84.889016 53.4418826,85.8059026 57.7057353,85.4535063 C61.304306,85.1559186 65.4519731,84.2901739 68.3875607,81.8425056 C71.6476546,79.124075 71.5827534,75.3754738 70.81561,71.3703914 C71.6283788,71.7702627 73.8769328,72.0178665 72.5332825,70.4239776 C72.0009862,69.7927135 70.9952822,69.5358463 70.3123159,69.1645372 C69.5170546,68.7322438 68.7095912,68.1735432 68.0920567,67.4683646 C65.5985756,64.6210179 68.1169915,58.8263567 71.2509966,57.8714515 C75.9072631,56.4527959 76.9497504,62.9898824 80.2736845,64.6808442 C82.1848228,65.6531184 84.1840287,64.3242022 85.6159235,62.9673028 C87.5339587,61.1495477 88.8411794,58.7414419 89.9697891,56.2908788 C90.8994508,54.2728021 91.7645649,52.2263561 92.7120877,50.2183147 C93.154548,49.2805855 94.6863589,46.6297007 93.9170934,45.569424 C97.2521686,44.9092116 100.966748,46.2850239 103.839026,48.0892698 C105.026171,48.8351689 105.931251,49.6574912 106.564525,50.9742492 C106.700163,51.2563978 106.99549,52.0951242 107.366329,52.129476 C108.056723,52.1935481 107.798709,51.3559797 107.730625,50.9574592" id="hair" fill="#191847"></path>
                </g>
                <g id="Bottom/Standing/Skinny-Jeans-Walk" transform="translate(0.328761, 209.103903)">
                    <polygon id="Leg" fill="#1F28CF" points="145.493333 0 200.14613 144.160944 238.453717 250.415331 260.296667 250.415331 207.639092 1.11206746e-13"></polygon>
                    <path d="M131.9859,0 C131.391822,49.464607 131.821317,116.060672 130.437127,119.144043 C129.514334,121.199625 100.811958,144.620298 44.33,189.406063 L55.5886609,208.490592 C122.645743,165.382666 157.888456,140.957021 161.316799,135.213659 C166.459313,126.598615 192.294901,47.3218542 205.736667,0 L131.9859,0 Z" id="Leg" fill="#2B44FF"></path>
                    <g id="Accessories/Shoe/Flat-Pointy" transform="translate(64.221667, 214.156098) rotate(50.000000) translate(-64.221667, -214.156098) translate(29.553333, 191.494077)" fill="#191847">
                        <path d="M0,45 L1.13424658,21.375 L24.9534247,21.375 C36.2478021,29.25 50.9930075,35.625 69.1890411,40.5 L69.1890411,45 L26.0876712,45 L11.3424658,42.75 L11.3424658,45 L0,45 Z" id="Shoe"></path>
                    </g>
                    <g id="Accessories/Shoe/Flat-Pointy" transform="translate(236.426667, 225.487108)" fill="#191847">
                        <path d="M0,45 L1.13424658,21.375 L24.9534247,21.375 C36.2478021,29.25 50.9930075,35.625 69.1890411,40.5 L69.1890411,45 L26.0876712,45 L11.3424658,42.75 L11.3424658,45 L0,45 Z" id="Shoe"></path>
                    </g>
                </g>
                <g id="Body/Trench-Coat" transform="translate(23.249216, 92.538249)">
                    <path d="M224.094969,102.491671 L258.313028,131.556475 C267.911421,134.886715 275.855125,138.749974 282.14414,143.14625 C283.595819,144.670387 285.269637,147.668317 278.874031,146.722389 C272.478426,145.77646 265.708749,145.069669 264.668142,147.204931 C263.627536,149.340193 267.335325,152.240688 265.334896,155.079933 C264.001276,156.972763 258.698384,151.620758 249.426219,139.023917 L214.742977,121.681401 L224.094969,102.491671 Z M61.6365896,80.0022539 L81.2990223,85.0101969 C54.9784065,129.344233 40.9030666,152.774266 39.0730026,155.300298 C34.9553586,160.983869 37.9460234,171.953474 38.9620901,177.700801 C30.6239745,179.189948 34.5225774,166.935108 23.9623553,168.982054 C14.3234744,170.850411 5.93800881,176.503855 -2.50564574,167.842108 C-3.54374345,166.777197 -4.17751619,163.585687 -0.373910814,162.165563 C9.10225728,158.627518 23.1856651,151.810394 25.5584129,149.0012 C28.7940785,145.170362 40.8201374,122.170713 61.6365896,80.0022539 Z" id="Skin" fill="#B28B67" transform="translate(140.091255, 128.914471) rotate(-4.000000) translate(-140.091255, -128.914471) "></path>
                    <path d="M230.474001,99.5770472 C235.126195,99.2424208 240.186643,100.01458 245.612137,101.846123 C248.281859,102.74737 249.716883,105.646344 248.817353,108.321163 C248.294913,109.874675 247.099886,111.010905 245.666736,111.513967 C246.704871,112.272776 247.752204,113.027398 248.808844,113.777755 L239.686964,132.435215 C201.30162,113.259708 165.22307,98.8024189 148.782873,67.1451978 C143.265118,56.520216 145.132721,20.4295238 144.606054,7.29988155 L156.729409,2.31849742 C173.628893,37.3175862 196.499869,70.894964 230.474001,99.5770472 Z" id="Back-Arm" fill="#69A1AC"></path>
                    <path d="M102.019544,129.368925 C137.656474,133.291311 165.706647,133.291311 186.170063,129.368925 C188.705343,128.882968 188.594007,117.933027 187.418274,114.942495 C169.109051,68.3721287 157.065098,34.2804369 157.065098,1.93370955 C153.705586,3.69190044 147.826123,3.95538732 139.42671,2.72417019 C116.853414,36.0585128 106.477274,74.305857 102.019544,129.368925 Z" id="Shirt" fill="#191847"></path>
                    <path d="M95.3974647,134.876495 C94.1869313,133.737316 93.5557235,132.029947 93.8653415,130.270664 L94.4590302,126.897261 C94.8583808,124.628108 96.7011848,122.975469 98.877139,122.717324 C99.2575516,121.013542 99.585543,119.321178 99.8564317,117.641206 C102.144837,103.449179 98.2349757,89.5334355 98.4185968,75.8681056 C80.1909869,91.4494716 63.8393875,118.35414 49.3637986,156.582111 L27.9546725,150.270306 C28.7715518,147.229715 29.617695,144.226469 30.4931022,141.260568 C28.0220544,139.854085 25.134627,133.407788 27.2126978,132.329068 C29.3588853,131.214989 31.6325179,130.430863 34.0268979,129.969342 C53.6570531,70.7312932 85.7583306,27.4081796 130.330732,-3.60600438e-13 L136.453733,-3.55271368e-13 L143.222319,-1.0658141e-14 C139.42671,50.2902694 191.853014,160.084494 173.649272,253.852713 C140.002391,261.380996 91.9671168,237.957998 45.2091821,256.671429 C46.9490231,218.910459 81.7996499,174.549997 95.3974647,134.876495 Z" id="Coat-Front" fill="#89C5CC"></path>
                    <polygon id="Shade-Lapel" fill-opacity="0.1" fill="#000000" points="135.012391 1.13571429 129.164228 19.154327 140.94113 32.6620566 130.297779 43.2769681 156.047112 87.45 124.558593 43.3652193 135.012391 32.6620566 124.558593 20.7250347"></polygon>
                    <path d="M148.495114,104.485714 C145.990943,104.485714 143.960912,102.451808 143.960912,99.9428571 C143.960912,97.4339064 145.990943,95.4 148.495114,95.4 C150.999285,95.4 153.029316,97.4339064 153.029316,99.9428571 C153.029316,102.451808 150.999285,104.485714 148.495114,104.485714 Z M154.162866,130.607143 C151.658696,130.607143 149.628664,128.573236 149.628664,126.064286 C149.628664,123.555335 151.658696,121.521429 154.162866,121.521429 C156.667037,121.521429 158.697068,123.555335 158.697068,126.064286 C158.697068,128.573236 156.667037,130.607143 154.162866,130.607143 Z M155.296417,156.728571 C152.792246,156.728571 150.762215,154.694665 150.762215,152.185714 C150.762215,149.676764 152.792246,147.642857 155.296417,147.642857 C157.800588,147.642857 159.830619,149.676764 159.830619,152.185714 C159.830619,154.694665 157.800588,156.728571 155.296417,156.728571 Z" id="Buttons" fill-opacity="0.4" fill="#000000"></path>
                </g>
            </g>
        </g>
    </g>
</svg>