<?xml version="1.0" encoding="UTF-8"?>
<svg width="350px" height="421px" viewBox="0 0 350 421" version="1.1" xmlns="http://www.w3.org/2000/svg" xmlns:xlink="http://www.w3.org/1999/xlink">
    <!-- Generator: sketchtool 52.1 (67048) - http://www.bohemiancoding.com/sketch -->
    <title>9241E5A8-2EA6-4DAF-A4D8-F3ABE548ADCD</title>
    <desc>Created with sketchtool.</desc>
    <g id="Home-Page" stroke="none" stroke-width="1" fill="none" fill-rule="evenodd">
        <g id="BVS-Home-Page" transform="translate(0.000000, -110.000000)">
            <g id="red" transform="translate(146.948245, 266.076741) rotate(-17.000000) translate(-146.948245, -266.076741) translate(-24.051755, 39.076741)">
                <g id="Head/Front/Short-2" transform="translate(118.428492, 76.051940) scale(-1, 1) rotate(17.000000) translate(-118.428492, -76.051940) translate(44.928492, 19.551940)">
                    <g id="Head" stroke-width="1" transform="translate(58.367647, 33.682692)" fill="#B28B67">
                        <path d="M8.93054603,37.4748493 C3.94993794,31.5980334 0.578958197,24.3959146 1.14225089,16.3257336 C2.76525399,-6.92670505 34.9649559,-1.81146482 41.2284646,9.92436942 C47.4919732,21.6602037 46.7477056,51.4291205 38.6526787,53.5266414 C35.4243932,54.3631299 28.5471851,52.3140681 21.5477918,48.0731402 L25.9411765,79.3173077 L0,79.3173077 L8.93054603,37.4748493 Z"></path>
                    </g>
                    <path d="M65.3048995,76.3918247 C62.0490265,61.8310561 52.7735758,51.9054682 54.1901596,45.3974273 C55.1345488,41.0587334 57.6516292,38.360652 61.7414007,37.3031831 C63.8565918,28.7014577 70.6785172,25.0428086 82.2071767,26.3272358 C99.500166,28.2538767 110.054844,35.4730455 105.4968,51.3583673 C101.306886,51.3583673 96.2487643,49.8351586 89.2544331,52.4449058 C87.03516,53.272968 85.4478709,55.8408618 84.4925657,60.1485869 L81.331855,60.1485869 C78.2642522,55.0364948 75.2395762,53.1579405 72.257827,54.5129239 C69.2760777,55.8679073 68.5982776,59.1591674 70.2244267,64.3867043 L68.6674572,76.3918247 L65.3048995,76.3918247 Z" id="Hair" fill="#191847"></path>
                </g>
                <g id="Bottom/Standing/Jogging" transform="translate(179.500000, 324.500000) scale(-1, 1) translate(-179.500000, -324.500000) translate(17.000000, 195.000000)">
                    <polygon id="Leg" fill="#997659" points="140.833333 0 221.331947 134.622466 281.682748 248.434414 294.681775 248.434414 193.563162 5.51635214e-13"></polygon>
                    <g id="Accessories/Shoe/Flat-Sneaker" transform="translate(270.833333, 215.652720)" fill="#E4E4E4">
                        <path d="M2.96094256,27.1399147 C1.70829233,30.4342817 1.08196721,32.8921755 1.08196721,34.5135961 C1.08196721,36.4521288 1.40700553,39.2809301 2.05708217,43 C4.3204911,43 24.6621283,43 63.0819937,43 C64.6678149,37.7910953 63.7523869,34.9789753 60.33571,34.5636399 C56.919033,34.1483045 54.0807414,33.7732899 51.8208352,33.4385961 L23.3766332,20.8396842 C22.8716664,20.6160171 22.2809919,20.8440556 22.0573248,21.3490224 C22.0541301,21.3562349 22.0510209,21.363485 22.0479978,21.3707711 L20.1929847,25.8415972 C17.0300354,27.3078511 14.4598108,28.040978 12.4823107,28.040978 C10.8456283,28.040978 8.57370805,27.3719638 5.66655006,26.0339355 L5.66654949,26.0339367 C4.66315575,25.5721217 3.47536936,26.011158 3.01355433,27.0145517 C2.99460141,27.0557311 2.97705402,27.0975429 2.96094256,27.1399147 Z" id="shoe"></path>
                    </g>
                    <path d="M264.921645,230.2097 L289.990039,222.623926 C279.006892,189.779676 265.545487,153.635783 249.605822,114.192247 C233.666157,74.7487113 216.54755,36.6846289 198.25,2.84217094e-14 L127.447746,2.84217094e-14 C147.790686,46.4043711 169.356931,88.568699 192.146481,126.492984 C214.93603,164.417268 239.194418,198.989507 264.921645,230.2097 Z" id="Pant" fill="#DB2721"></path>
                    <path d="M135.543014,2.84217094e-14 C127.945456,47.307259 113.291849,107.747759 111.908943,109.612971 C110.987006,110.856445 77.797039,121.98163 12.3390414,142.988525 L15.1469881,154.454962 C93.2054966,143.188829 134.335674,134.448098 138.537519,128.232772 C144.840287,118.909783 176.310859,45.2579602 188.5,2.84217094e-14 L135.543014,2.84217094e-14 Z" id="Leg" fill="#B28B67"></path>
                    <path d="M35.3486334,133.076668 L40.2945258,151.544193 C98.6777422,156.666413 134.450428,152.965288 147.612584,140.440817 C160.77474,127.916347 175.775713,81.1027409 192.615502,-1.13686838e-13 L125.101325,-1.13686838e-13 C114.432031,66.4122319 108.467201,101.012304 107.206836,103.800216 C105.94647,106.588128 81.993736,116.346945 35.3486334,133.076668 Z" id="Pant" fill="#FF4133"></path>
                    <g id="Accessories/Shoe/Flat-Sneaker" transform="translate(26.541667, 166.887029) rotate(80.000000) translate(-26.541667, -166.887029) translate(-6.500000, 145.213389)" fill="#E4E4E4">
                        <path d="M2.96094256,27.1399147 C1.70829233,30.4342817 1.08196721,32.8921755 1.08196721,34.5135961 C1.08196721,36.4521288 1.40700553,39.2809301 2.05708217,43 C4.3204911,43 24.6621283,43 63.0819937,43 C64.6678149,37.7910953 63.7523869,34.9789753 60.33571,34.5636399 C56.919033,34.1483045 54.0807414,33.7732899 51.8208352,33.4385961 L23.3766332,20.8396842 C22.8716664,20.6160171 22.2809919,20.8440556 22.0573248,21.3490224 C22.0541301,21.3562349 22.0510209,21.363485 22.0479978,21.3707711 L20.1929847,25.8415972 C17.0300354,27.3078511 14.4598108,28.040978 12.4823107,28.040978 C10.8456283,28.040978 8.57370805,27.3719638 5.66655006,26.0339355 L5.66654949,26.0339367 C4.66315575,25.5721217 3.47536936,26.011158 3.01355433,27.0145517 C2.99460141,27.0557311 2.97705402,27.0975429 2.96094256,27.1399147 Z" id="shoe"></path>
                    </g>
                </g>
                <g id="Body/Long-Sleeve" transform="translate(165.500000, 198.000000) scale(-1, 1) rotate(21.000000) translate(-165.500000, -198.000000) translate(27.000000, 97.000000)">
                    <path d="M207.75,70.5496233 L250.471706,64.7319962 C259.01778,59.9864671 266.879754,56.7738268 274.057627,55.0940755 C276.077555,55.0351986 279.290873,55.7682611 274.50392,59.7522447 C269.716968,63.7362283 264.85993,68.143346 265.71282,70.2695285 C266.56571,72.395711 271.017515,71.6046287 271.755003,74.8748782 C272.246662,77.0550445 265.021653,77.4092997 250.079977,75.937644 L215.414973,89.657754 L207.75,70.5496233 Z M73.5454389,80.4215832 L97.2391011,80.5103548 C71.2583574,138.878424 57.7115946,169.43902 56.5988128,172.192142 C54.0950536,178.386668 59.3933447,187.820823 61.6591043,192.890667 C54.2796009,196.187229 55.0658948,183.978715 45.7568498,188.302339 C37.2599851,192.248743 30.7964414,199.399363 20.979542,193.352209 C19.7726119,192.608747 18.4500132,189.809478 21.6455789,187.621997 C29.6068987,182.172185 41.0796427,172.634031 42.6297911,169.494474 C44.7436954,165.213127 55.0489113,135.522164 73.5454389,80.4215832 Z" id="Skin" fill="#997659"></path>
                    <path d="M133.61068,10.453014 L152.19898,10.0652387 C160.346943,50.7754924 187.410233,74.5722556 242.147937,60.9255942 L254.153813,113.218947 C202.85992,124.451375 155.547295,107.696508 141.310912,52.3705319 C137.625562,38.0483846 134.396338,23.09038 133.61068,10.453014 Z" id="Clothes-Back" fill="#AFB9C5" transform="translate(193.882247, 63.292104) rotate(5.000000) translate(-193.882247, -63.292104) "></path>
                    <path d="M129.292798,0.0172181275 L157.400494,6.44377469 C157.400494,54.7068116 172.800418,85.4994263 180.699219,120.983957 L104.78786,120.983957 C103.718516,133.245356 103.061841,145.847851 102.719651,158.791444 L45.8798949,158.791444 C58.7601023,90.3749764 85.9458626,37.4444951 127.437176,0 L129.278015,0 L129.292798,0.0172181275 Z" id="Clothes" fill="#C5CFD6"></path>
                    <path d="M116.764647,52.1303121 C114.808345,82.2048492 115.958902,105.156064 120.216318,120.983957 L104.78786,120.983957 C106.906228,96.6941617 110.644054,73.7429505 116.764644,52.1303236 Z" id="Shade" fill-opacity="0.1" fill="#000000"></path>
                </g>
            </g>
        </g>
    </g>
</svg>