<?xml version="1.0" encoding="UTF-8"?>
<svg width="281px" height="410px" viewBox="0 0 281 410" version="1.1" xmlns="http://www.w3.org/2000/svg" xmlns:xlink="http://www.w3.org/1999/xlink">
    <!-- Generator: sketchtool 52.1 (67048) - http://www.bohemiancoding.com/sketch -->
    <title>F150B03A-7D6B-41C7-A7FC-2253D9DEA98D@2x</title>
    <desc>Created with sketchtool.</desc>
    <g id="Home-Page" stroke="none" stroke-width="1" fill="none" fill-rule="evenodd">
        <g id="BVS-Home-Page" transform="translate(-355.000000, -667.000000)">
            <g id="Orange" transform="translate(517.116495, 859.706416) rotate(-10.000000) translate(-517.116495, -859.706416) translate(374.616495, 659.706416)">
                <g id="Head/Front/Airy" transform="translate(76.379664, 0.485453)">
                    <g id="Head" stroke-width="1" transform="translate(51.220588, 29.211538)" fill="#B28B67">
                        <path d="M7.83700978,32.5003118 C3.46627207,27.4036042 0.508065356,21.1575188 1.00238343,14.1586008 C2.42665146,-6.00723093 30.6835327,-1.57100489 36.1800812,8.60697525 C41.6766296,18.7849554 41.0234967,44.6022461 33.9196976,46.421335 C31.0867124,47.1467852 25.0516114,45.3697228 18.9092867,41.6917499 L22.7647059,68.7884615 L0,68.7884615 L7.83700978,32.5003118 Z"></path>
                    </g>
                    <path d="M74.4253644,26.0880304 C71.425042,25.5992376 63.3465419,25.2631789 61.8567221,25.2633959 C60.904657,25.2633959 59.8729084,25.4794801 59.309028,24.6110212 C58.8472558,23.8998526 59.0164199,22.6970707 58.8786067,21.8717853 C58.7185866,20.9130745 58.4912927,19.9667298 58.2613863,19.0227717 C57.6071545,16.3366891 56.6178602,13.7812115 55.2336319,11.3819394 C52.636299,6.88061937 48.8313042,3.35471554 44.0276533,1.30300052 C38.7230416,-0.96241222 32.7204375,-1.48114444 27.0145782,-1.02164011 C20.9085597,-0.530026892 15.3812262,1.47244003 9.61614852,3.35688506 C4.122343,5.15259673 -1.63184896,5.85942633 -7.37776777,4.98250636 C-13.1670117,4.09907784 -17.5413297,0.981911565 -22.4244463,-1.9766628 C-27.423387,-5.00552961 -33.1362132,-6.98651828 -39.0458533,-6.53113604 C-44.5623011,-6.10591013 -49.6465858,-3.84310082 -54.2081382,-0.820308663 C-58.4759938,2.00787755 -61.9975245,5.41055265 -63.9856925,10.199551 C-66.1245189,15.3510761 -66.1225595,21.005713 -62.6053831,25.5584506 C-57.5073824,32.1576964 -48.0431191,33.8642408 -40.1692596,33.6945843 C-35.6148918,33.596739 -31.1419492,32.7708027 -26.8420895,31.2684102 C-21.1077096,29.2646415 -16.1523118,25.868475 -10.7876109,23.1129677 C-8.26996144,21.8199338 -5.66762105,20.7579538 -2.93987716,19.992981 C-0.292905313,19.2503544 2.31422479,18.9097397 4.71082506,20.4982622 C7.24610941,22.1787724 9.51795932,23.8295601 12.4183507,24.8815604 C15.2007409,25.890821 18.147941,26.4553301 21.1123404,26.4325502 C26.8800307,26.388292 32.5656426,24.602994 38.1674345,23.4071546 C42.7355183,22.4321723 47.6232069,21.4604443 52.2803359,22.397677 C54.2236548,22.7888414 57.0622153,23.5963367 57.7641266,25.6027088 C45.9507248,27.7297062 41.3110237,42.2437947 44.6414011,52.8985241 C46.4388513,58.6492707 57.2435714,65.3718326 61.4445887,62.3485783 C64.1060541,60.4332597 62.4902711,57.9187933 61.4445887,56.2588936 C59.4420516,53.0801129 58.7569043,48.9968594 62.4624036,46.7837321 C65.6586689,44.8749885 69.0193217,49.4077481 69.0828943,49.4027582 C69.961372,49.3339844 77.5521823,45.0692065 82.7821125,38.8458139 C87.941458,39.1496483 88.7242054,35.7700231 87.4922547,33.0061248 C86.260304,30.2422266 78.5708645,26.7638359 74.4253644,26.0880304 Z" id="hair" fill="#191847"></path>
                </g>
                <g id="Bottom/Standing/Sprint" transform="translate(0.273968, 173.325707)">
                    <path d="M196.323231,-9.18462833 C178.239776,5.5613362 185.190265,134.936204 183.983583,136.564352 C183.447281,137.287973 154.780309,143.432663 97.9826683,154.998421 L100.439808,165.0127 C166.883985,161.748682 202.04111,157.650738 205.911183,152.718867 C211.452018,145.65784 218.283999,106.155241 226.407125,34.2110706 L196.323231,-9.18462833 Z" id="Leg" fill="#B28B67" transform="translate(162.194897, 77.914036) rotate(-55.000000) translate(-162.194897, -77.914036) "></path>
                    <path d="M107.564662,144.46441 L111.89185,160.593325 C161.425175,166.308908 194.073593,159.283629 205.560895,148.352771 C213.219096,141.065533 220.068781,101.670313 226.109948,30.1671127 L193.927681,-15.7939271 C150.87982,16.6856033 176.605514,123.097553 175.506258,125.531499 C174.407001,127.965445 148.286992,129.876737 107.564662,144.46441 Z" id="Pant" fill="#2F3676" transform="translate(166.837305, 73.417987) rotate(-55.000000) translate(-166.837305, -73.417987) "></path>
                    <g id="Accessories/Shoe/Flat-Sneaker" transform="translate(211.470106, 177.092391) rotate(20.000000) translate(-211.470106, -177.092391) translate(182.596773, 158.180257)" fill="#E4E4E4">
                        <path d="M2.50800092,24.2346094 C1.46988009,27.0203119 0.950819672,29.1089045 0.950819672,30.5003873 C0.950819672,32.2135092 1.23645941,34.7133801 1.80773888,38 C3.79679521,38 21.6727794,38 55.4356915,38 C56.8292918,33.3967819 56.0248249,30.9116526 53.0222906,30.544612 C50.0197563,30.1775714 47.5255,29.8461632 45.5395218,29.5503873 L20.6595211,18.4683207 C20.1550199,18.2436054 19.5638731,18.4704167 19.3391578,18.974918 C19.3353983,18.9833584 19.3317559,18.9918505 19.3282318,19.0003919 L17.7453502,22.8367603 C14.9657887,24.1325195 12.7071064,24.7803992 10.9693034,24.7803992 C9.5745413,24.7803992 7.65482233,24.2244261 5.21014647,23.11248 L5.21014351,23.1124865 C4.20469716,22.6551653 3.01888975,23.0995085 2.56156853,24.1049549 C2.54220197,24.1475333 2.52433511,24.1907781 2.50800092,24.2346094 Z" id="shoe"></path>
                    </g>
                    <polygon id="Leg" fill="#997659" points="123.066667 0 74.080489 117.469797 25.9347007 216.780609 37.2938504 216.780609 161.571091 0"></polygon>
                    <g id="Accessories/Shoe/Flat-Sneaker" transform="translate(22.720000, 188.175732)" fill="#E4E4E4">
                        <path d="M2.50800092,24.2346094 C1.46988009,27.0203119 0.950819672,29.1089045 0.950819672,30.5003873 C0.950819672,32.2135092 1.23645941,34.7133801 1.80773888,38 C3.79679521,38 21.6727794,38 55.4356915,38 C56.8292918,33.3967819 56.0248249,30.9116526 53.0222906,30.544612 C50.0197563,30.1775714 47.5255,29.8461632 45.5395218,29.5503873 L20.6595211,18.4683207 C20.1550199,18.2436054 19.5638731,18.4704167 19.3391578,18.974918 C19.3353983,18.9833584 19.3317559,18.9918505 19.3282318,19.0003919 L17.7453502,22.8367603 C14.9657887,24.1325195 12.7071064,24.7803992 10.9693034,24.7803992 C9.5745413,24.7803992 7.65482233,24.2244261 5.21014647,23.11248 L5.21014351,23.1124865 C4.20469716,22.6551653 3.01888975,23.0995085 2.56156853,24.1049549 C2.54220197,24.1475333 2.52433511,24.1907781 2.50800092,24.2346094 Z" id="shoe"></path>
                    </g>
                    <path d="M30.2824929,196.149929 L55.5226493,200.877962 C75.0382675,172.218501 156.711926,54.7050863 165.666667,2.84217094e-14 L109.476389,2.84217094e-14 C79.5719536,39.5462384 48.8849074,167.016385 30.2824929,196.149929 Z" id="Pant" fill="#5C63AB"></path>
                </g>
                <g id="Body/Jacket-2" transform="translate(19.374347, 76.147272)">
                    <path d="M187.171875,73.4664412 L221.424864,58.4044855 C227.425189,52.417577 233.219358,47.8672497 238.807371,44.7535036 C240.478293,44.2208559 243.332986,44.0599367 240.287252,48.5142503 C237.241519,52.9685638 234.237935,57.7909866 235.45493,59.3520719 C236.671925,60.9131573 240.197294,59.1901441 241.59006,61.7287751 C242.518571,63.4211957 236.576067,65.4456842 223.762551,67.8022407 L198.109084,87.4960094 L187.171875,73.4664412 Z M48.6914236,77.6149733 L68.0625,81.463393 C48.5815779,117.814852 38.1343093,137.081147 36.7206942,139.262277 C33.5400603,144.169819 36.5076561,153.16391 37.6038736,157.90026 C30.7268198,159.503143 33.4389186,149.139069 24.7361399,151.302993 C16.7926471,153.278123 10.057523,158.34701 2.6505413,151.510807 C1.73989643,150.670336 1.07326132,148.043262 4.17811099,146.695848 C11.9134238,143.338949 23.341697,137.053223 25.1947925,134.612851 C27.7218192,131.284967 35.5540296,112.285675 48.6914236,77.6149733 Z" id="Skin" fill="#B28B67"></path>
                    <path d="M116.533027,9.34358663 L124.553801,7.23264299 C143.797506,22.9081854 154.656438,63.6631023 166.955854,68.1073875 C178.584453,72.3092794 193.987956,65.9110389 212.226597,57.4957332 L219.122101,69.8923531 C203.634072,89.9233151 168.55413,108.770694 152.997377,101.124212 C128.125363,88.8990776 118.206213,38.3300591 116.533027,9.34358663 Z" id="Coat-Back" fill="#E87613" transform="translate(167.827564, 55.048617) rotate(5.000000) translate(-167.827564, -55.048617) "></path>
                    <path d="M85.078125,107.903743 C117.853769,107.903743 141.962846,107.903743 157.405356,107.903743 C160.710341,107.903743 160.08758,103.125346 159.609824,100.714141 C154.095946,72.8859178 132.571858,42.8884398 132.571858,3.27566451 L111.70928,0 C94.4532475,27.7884385 88.4858124,62.0016328 85.078125,107.903743 Z" id="Shirt" fill="#DDE3E9"></path>
                    <path d="M77.8642133,79.7287221 C63.1198212,106.358857 50.7263617,125.53128 40.6838349,137.245989 L25.5234375,134.272787 C35.2890759,73.6307432 63.5690615,28.8731476 110.363394,3.08153982e-14 L110.601562,2.25746027e-14 L118.623861,0 C137.352888,63.9253463 142.516149,106.518929 134.113645,127.780749 L69.0078125,127.780749 C70.0378516,112.223159 73.3405543,95.7704398 77.8642147,79.7287188 Z" id="Coat-Front" fill="#FF9B21"></path>
                </g>
            </g>
        </g>
    </g>
</svg>