<?xml version="1.0" encoding="UTF-8"?>
<svg width="665px" height="963px" viewBox="0 0 665 963" version="1.1" xmlns="http://www.w3.org/2000/svg" xmlns:xlink="http://www.w3.org/1999/xlink">
    <!-- Generator: sketchtool 52.1 (67048) - http://www.bohemiancoding.com/sketch -->
    <title>B2B34B7A-5D86-48D2-A78C-99155A3EE558@2x</title>
    <desc>Created with sketchtool.</desc>
    <g id="Home-Page" stroke="none" stroke-width="1" fill="none" fill-rule="evenodd">
        <g id="BVS-Home-Page" transform="translate(-1096.000000, -180.000000)">
            <g id="blue" transform="translate(1096.051755, 69.000000)">
                <g id="Head/Front/Rad" transform="translate(541.543529, 199.708682) rotate(32.000000) translate(-541.543529, -199.708682) translate(372.467176, 70.430904)">
                    <g id="Head" stroke-width="1" transform="translate(134.205882, 77.201923)" fill="#B28B67">
                        <path d="M20.5341807,85.8936811 C9.08217022,72.4238111 1.33121,55.9162997 2.62640001,37.4191592 C6.35820305,-15.8762532 80.3956129,-4.15194148 94.797422,22.747006 C109.199231,49.6459535 107.487922,117.877365 88.8748667,122.684957 C81.452006,124.602218 65.6391059,119.905696 49.5452627,110.185339 L59.6470588,181.798077 L0,181.798077 L20.5341807,85.8936811 Z"></path>
                    </g>
                    <path d="M237.113507,96.8801978 C239.040052,94.9671248 240.090936,92.2365353 240.999995,89.6437267 C241.944052,86.9503082 242.861345,84.2291354 243.488125,81.4256904 C244.740539,75.8242524 244.752434,69.3824995 240.764609,65.0329843 C237.566435,61.5450954 232.767686,59.9806874 228.338829,59.6406957 C225.388163,59.4139519 222.357663,59.8280381 219.529151,60.7597938 C216.722828,61.6841154 214.303781,63.5263154 211.58324,64.6696987 C211.479386,58.6333587 210.447488,52.3172441 207.391369,47.1630984 C204.450539,42.2039771 199.76182,39.4211002 194.422074,38.6848644 C188.941417,37.9292997 183.529386,39.2144288 178.622895,41.8731542 C177.3945,42.5390126 176.177542,43.2365904 175.012968,44.0261047 C174.0378,44.6872548 173.023974,45.48346 171.879759,45.752331 C170.604241,46.0524257 169.971972,45.3142075 169.142976,44.3817083 C168.171011,43.2883822 167.075978,42.3254027 165.917123,41.4717062 C160.793089,37.6975998 154.070083,36.14583 148.133753,38.4080636 C145.398572,39.4503414 142.738878,41.2204296 140.883246,43.6595976 C139.229144,45.8338596 138.049244,49.2828427 135.766304,50.7976893 C134.797542,51.4407494 134.113346,50.5887876 133.23128,49.9591091 C131.906352,49.0129805 130.642728,47.968968 129.301787,47.0486114 C127.418247,45.7555525 125.378928,44.7883602 123.195037,44.2820898 C119.998007,43.5408979 115.5799,43.7146109 114.665809,47.9104855 C114.322682,49.4865404 114.585746,51.1721262 114.696691,52.7600759 C114.848811,54.9405331 115.007564,57.1202468 115.196513,59.2974825 C115.33994,60.9506055 115.52134,62.5472285 115.832671,64.1706146 C115.998744,65.035958 116.518468,66.6491841 116.148119,67.5157665 C115.685355,68.5989325 113.549502,67.9831312 112.637012,68.0207979 C110.834679,68.0953879 109.024798,68.4120858 107.358343,69.183758 C106.066812,69.781965 104.708943,70.6616812 104.163829,72.1450562 C103.828708,73.0562439 103.917006,73.9922124 104.075302,74.9296677 C104.265166,76.0547132 104.04808,76.6514334 103.906254,77.786639 C101.485606,76.5922075 93.0972892,73.9384382 92.0418298,78.2854753 C91.6904675,79.7329182 92.4906402,81.3684469 93.1011779,82.5891461 C94.1719636,84.7302019 95.5758115,86.6871368 97.0109984,88.5533742 C100.004669,92.446676 103.578682,95.8047138 107.423995,98.6765535 C102.918734,100.683546 101.742723,106.603416 105.643393,110.130459 C107.365663,111.68768 109.681314,112.034363 111.853767,111.934744 C112.648908,111.898316 113.795181,111.592026 114.420817,111.730799 C114.757539,111.805389 115.118051,112.091358 115.584475,112.123326 C118.650432,112.333714 122.111442,111.593513 125.108544,110.911795 C130.448976,109.697043 135.504841,107.161726 139.633577,103.300391 C140.692696,102.309905 141.567671,101.739701 142.99325,101.754321 C144.242462,101.766959 145.468112,102.110173 146.71618,102.141892 C150.018437,102.226394 152.995866,100.608708 156.06228,99.5319846 C156.250085,103.683006 157.429756,108.254804 159.124347,111.989262 C160.506235,115.034567 163.391935,115.477151 166.227538,115.744287 C175.295247,116.599222 184.394982,115.645164 193.474128,115.657802 C184.685267,117.648439 175.603376,118.468929 166.892519,120.811452 C162.95502,121.870085 165.961729,124.529306 167.64534,126.372746 C170.417579,129.408386 172.478859,133.169606 173.908556,137.132046 C178.20794,131.516236 185.807293,127.815976 192.539907,129.541211 C199.978905,131.447097 205.217086,141.527654 200.460199,148.774781 C197.698482,152.981807 192.711242,154.605936 188.561461,156.413443 C191.798752,159.786102 192.581769,164.767278 194.530274,168.963153 C195.491259,171.032344 196.840206,173.371894 198.989326,174.093013 C199.784467,174.359902 200.716858,174.3827 201.344094,175.032203 C202.121163,175.836338 202.306223,176.735383 203.298547,177.426518 C207.258235,180.18511 213.443447,179.972491 216.953181,176.372593 C220.127108,173.1169 219.301315,167.964984 216.650543,164.66419 C220.870092,162.901784 228.557515,160.63509 226.880538,154.047874 C236.023735,153.439507 258.223152,138.580481 245.951549,127.722552 C252.686222,123.908549 258.873492,114.587522 254.547573,106.370973 C251.216494,100.043955 243.469596,97.215729 237.113507,96.8801978" id="hair" fill="#191847" transform="translate(173.970588, 108.331731) scale(-1, 1) translate(-173.970588, -108.331731) "></path>
                </g>
                <g id="Bottom/Standing/Skirt" transform="translate(0.000000, 480.000000)">
                    <path d="M242.220792,243.783749 C301.874304,260.460113 353.341551,268.798295 396.622534,268.798295 C439.903516,268.798295 480.104894,255.957643 517.226667,230.276337 C458.850279,213.159567 410.774723,204.601182 373,204.601182 C335.225277,204.601182 291.632207,217.662038 242.220792,243.783749 Z" id="Skirt-Shadow" fill="#1F28CF"></path>
                    <path d="M448.263531,292.835357 C447.688329,291.971094 447.202569,291.03095 446.817275,290.012551 C438.843543,268.936578 311.123987,41.5688994 298.4,0 L442.194204,0 C451.868431,31.6054212 495.411184,229.944507 501.539083,269.516078 C520.873732,331.935946 560.68184,534.09111 565.763672,548.095802 C571.109674,562.8285 541.029498,578.176162 533.013839,560.064137 C520.259572,531.244846 489.869973,451.502387 476.338743,402.812197 C463.653244,357.165249 453.323861,316.098718 448.263531,292.835357 Z" id="Leg" fill="#784931"></path>
                    <path d="M330.619894,320.594961 C272.228613,335.345245 58.6456181,362.011148 43.9886176,366.193627 C28.9111369,370.496093 15.6910714,339.434413 34.3276518,332.705926 C63.9815979,321.999768 145.691642,297.262732 195.232737,287.168036 C235.080593,279.048474 271.442252,272.422922 295.854511,268.543072 C293.786361,200.005119 284.332319,35.5245441 290.528923,1.42108547e-14 L417.76,1.42108547e-14 C411.817874,34.0656491 361.586479,282.628963 352.250258,307.509448 C349.287399,316.391948 340.446845,320.317357 330.619894,320.594961 Z" id="Leg" fill="#915B3C"></path>
                    <g id="Accessories/Shoe/Flat-Sneaker" transform="translate(60.923333, 390.200837) rotate(80.000000) translate(-60.923333, -390.200837) translate(-14.920000, 340.493724)" fill="#E4E4E4">
                        <path d="M7.85853682,59.8245418 C4.28071446,68.7586119 2.49180328,75.3042763 2.49180328,79.4615353 C2.49180328,83.9246687 3.24037638,90.4374902 4.73752258,99 C9.95022193,99 56.7976288,99 145.279743,99 C148.931937,87.0074054 146.823679,80.5329896 138.954968,79.5767523 C131.086258,78.6205151 124.549586,77.7571094 119.344954,76.9865353 L52.61701,47.4394862 C52.1120179,47.2158764 51.5213693,47.4439818 51.2977594,47.9489739 C51.2945954,47.9561192 51.2915154,47.9633014 51.2885198,47.9705189 L46.5050556,59.4957702 C39.2206876,62.8715641 33.3013824,64.559461 28.7471399,64.559461 C24.5286422,64.559461 18.4777312,62.6302065 10.5944069,58.7716975 L10.5943979,58.771716 C9.60230069,58.286132 8.40440345,58.6967421 7.91881948,59.6888393 C7.89705239,59.7333117 7.87694431,59.778577 7.85853682,59.8245418 Z" id="shoe"></path>
                    </g>
                    <g id="Accessories/Shoe/Flat-Sneaker" transform="translate(517.226667, 494.585774)" fill="#E4E4E4">
                        <path d="M7.85853682,59.8245418 C4.28071446,68.7586119 2.49180328,75.3042763 2.49180328,79.4615353 C2.49180328,83.9246687 3.24037638,90.4374902 4.73752258,99 C9.95022193,99 56.7976288,99 145.279743,99 C148.931937,87.0074054 146.823679,80.5329896 138.954968,79.5767523 C131.086258,78.6205151 124.549586,77.7571094 119.344954,76.9865353 L52.61701,47.4394862 C52.1120179,47.2158764 51.5213693,47.4439818 51.2977594,47.9489739 C51.2945954,47.9561192 51.2915154,47.9633014 51.2885198,47.9705189 L46.5050556,59.4957702 C39.2206876,62.8715641 33.3013824,64.559461 28.7471399,64.559461 C24.5286422,64.559461 18.4777312,62.6302065 10.5944069,58.7716975 L10.5943979,58.771716 C9.60230069,58.286132 8.40440345,58.6967421 7.91881948,59.6888393 C7.89705239,59.7333117 7.87694431,59.778577 7.85853682,59.8245418 Z" id="shoe"></path>
                    </g>
                    <path d="M290.94,1.0658141e-14 C347.006474,-16.0323808 400.055363,-16.0323808 450.086667,1.0658141e-14 C467.493333,79.375967 509.788897,110.88035 517.226667,232.576912 C432.68,274.564009 328.24,202.632182 241.206667,243.578053 C216.34,186.305011 251.153333,48.37625 290.94,1.0658141e-14 Z" id="Skirt" fill="#2B44FF"></path>
                </g>
                <g id="Body/Jacket" transform="translate(413.194812, 484.141179) rotate(21.000000) translate(-413.194812, -484.141179) translate(95.423914, 251.997212)">
                    <path d="M482.07908,221.13821 L552.456217,289.708535 C572.93337,298.432258 589.71148,308.06501 602.790547,318.606791 C605.731833,322.150242 608.933902,328.939678 595.095296,325.901503 C581.25669,322.863327 566.563745,320.289222 563.962805,324.784038 C561.361865,329.278854 569.025748,336.166509 564.218888,342.049066 C561.014314,345.970771 550.23708,333.496596 531.887187,304.626539 L458.704272,261.533393 L482.07908,221.13821 Z M169.702509,230.808715 L221.619466,231.012626 C189.563141,334.367181 172.257488,389.206461 169.702509,395.530465 C163.953805,409.759474 176.118835,431.430008 181.321084,443.075591 C164.377531,450.647892 166.182885,422.604572 144.809049,432.536066 C125.300002,441.601074 110.459519,458.02626 87.9196344,444.135767 C85.148488,442.428012 82.1117631,435.998008 89.4488744,430.9733 C107.728294,418.454919 134.070046,396.545497 137.629232,389.333842 C142.482817,379.499461 153.173909,326.657752 169.702509,230.808715 Z" id="Skin" fill="#B28B67"></path>
                    <path d="M303.158759,22.9188684 L324.23896,17.3803717 C369.127143,106.085161 440.763313,183.985738 539.147468,251.082102 L477.135253,341.333752 C375.97578,242.391913 309.733878,136.975377 303.158759,22.9188684 Z" id="Coat-Back" fill="#191847" transform="translate(421.153113, 179.357062) rotate(5.000000) translate(-421.153113, -179.357062) "></path>
                    <path d="M223.59375,282.86631 L414.890625,282.86631 C370.571535,175.241006 348.41199,83.8145868 348.41199,8.58705272 L290.707173,0 C245.356609,72.8465282 232.54949,162.535354 223.59375,282.86631 Z" id="Shirt" fill="#DDE3E9"></path>
                    <path d="M289.485424,0.0407423435 C289.493,0.0271592011 289.500576,0.0135784198 289.508151,2.01316602e-14 L293.274884,-4.26370906e-14 C297.782107,0.155013556 304.647185,0.434301255 313.87012,0.837863099 L327.813674,40.635681 C329.288593,89.1585252 337.901895,186.945149 353.653581,333.995552 L228.25464,333.995552 C228.583373,344.151717 229.125399,354.402754 229.880721,364.748663 L136.640625,364.748663 C150.587699,207.594005 201.520668,86.0111175 289.439532,1.42108547e-14 L289.485424,0.0407423278 Z" id="Coat-Front" fill="#2F3676"></path>
                    <path d="M236.537915,204.043631 C240.106753,267.353059 249.042031,310.996269 263.34375,334.973262 L228.286936,334.973262 C226.752161,289.423981 229.502488,245.780822 236.537913,204.043648 Z" id="Shade" fill-opacity="0.1" fill="#000000"></path>
                    <polygon id="Light" fill-opacity="0.2" fill="#FFFFFF" points="256.16614 258.053476 318 229.34322 318 258.053476"></polygon>
                </g>
            </g>
        </g>
    </g>
</svg>