<?xml version="1.0" encoding="UTF-8"?>
<svg width="258px" height="75px" viewBox="0 0 258 75" version="1.1" xmlns="http://www.w3.org/2000/svg" xmlns:xlink="http://www.w3.org/1999/xlink">
    <!-- Generator: sketchtool 52.1 (67048) - http://www.bohemiancoding.com/sketch -->
    <title>D3844A54-5E8C-4CD4-A29B-6DC1C29EF16D</title>
    <desc>Created with sketchtool.</desc>
    <defs>
        <path d="M123.026157,50.3301023 C123.096938,54.8398885 121.929067,58.6884964 119.522509,61.8760417 C117.94173,64.0482947 115.712158,65.5712101 112.833726,66.4448336 C111.276541,66.940674 109.47165,67.1885905 107.418997,67.1885905 C103.596817,67.1885905 100.435308,66.2441468 97.9343746,64.3552311 C95.8581284,62.7968757 94.2065937,60.6895857 92.9797209,58.033298 C91.7528481,55.3770103 91.0450476,52.3134712 90.8562979,48.8425886 L100.093188,48.2050827 C100.517875,51.9593027 101.520592,54.6745782 103.101371,56.3509909 C104.257462,57.626009 105.590487,58.2280918 107.100484,58.1572575 C109.223918,58.0864232 110.922639,57.0475351 112.196699,55.0405622 C112.857323,54.02527 113.18763,52.596799 113.18763,50.7551062 C113.18763,48.0397899 111.972572,45.3599309 109.54242,42.715449 C107.607736,40.8973676 104.717551,38.1702865 100.871776,34.5341238 C97.6394386,31.4174129 95.36268,28.6194986 94.0414324,26.1402967 C92.6022163,23.3541461 91.882619,20.3319263 91.882619,17.0735468 C91.882619,11.1942967 93.852664,6.74360588 97.7928131,3.72134078 C100.222965,1.90325944 103.242914,0.994232398 106.852751,0.994232398 C110.321026,0.994232398 113.293789,1.77339843 115.771128,3.33175387 C117.682218,4.53593762 119.227583,6.21822792 120.407268,8.37867523 C121.586954,10.5391225 122.306551,13.02419 122.566082,15.833952 L113.22302,17.5339677 C112.96349,14.8894857 112.208502,12.8353207 110.958036,11.3714111 C110.061475,10.2852845 108.775637,9.74222942 107.100484,9.74222942 C105.330956,9.74222942 103.974338,10.533201 103.03059,12.1151679 C102.275591,13.390186 101.898098,14.9721291 101.898098,16.8610448 C101.898098,19.8124756 103.172139,22.8228898 105.720259,25.8923778 C106.687601,27.0493386 108.126796,28.418782 110.037886,30.0007489 C112.302882,31.8896645 113.80106,33.2118857 114.532465,33.967452 C116.915429,36.3758195 118.767507,38.7487342 120.088755,41.0862674 C120.702191,42.1723939 121.197652,43.1876708 121.575151,44.1321287 C122.495305,46.4224389 122.978969,48.4884095 123.026157,50.3301023 Z M146.313029,0.994232398 C150.607084,0.994232398 154.258155,2.50534228 157.266352,5.52760738 C160.27455,8.54987247 161.778626,12.1977862 161.778626,16.4714579 L161.778626,51.711365 C161.778626,56.0086481 160.268652,59.6624646 157.248657,62.672924 C154.228663,65.6833834 150.58349,67.1885905 146.313029,67.1885905 C142.042568,67.1885905 138.415091,65.6774806 135.430487,62.6552155 C132.445883,59.6329504 130.953604,55.9850367 130.953604,51.711365 L130.953604,16.4714579 C130.953604,12.1741747 132.463578,8.52035825 135.483572,5.50989888 C138.503567,2.49943951 142.11335,0.994232398 146.313029,0.994232398 Z M151.621587,16.2589562 C151.621587,14.7006008 151.084838,13.3842825 150.011324,12.3099617 C148.937811,11.2356409 147.622481,10.6984886 146.065297,10.6984886 C144.531706,10.6984886 143.216376,11.2356409 142.119269,12.3099617 C141.022162,13.3842825 140.473616,14.7006008 140.473616,16.2589562 L140.473616,51.6405309 C140.473616,53.1752749 141.022162,54.4856905 142.119269,55.571817 C143.216376,56.6579435 144.531706,57.2009986 146.065297,57.2009986 C147.622481,57.2009986 148.937811,56.6579435 150.011324,55.571817 C151.084838,54.4856905 151.621587,53.1752749 151.621587,51.6405309 L151.621587,16.2589562 Z M185.631742,67.1885907 C181.361282,67.1885907 177.733804,65.6951891 174.7492,62.7083412 C171.764596,59.7214932 170.272317,56.1030934 170.272317,51.8530331 L170.272317,1.77340626 L179.792329,1.77340626 L179.792329,51.7467821 C179.792329,53.2815261 180.340875,54.5919417 181.437982,55.6780682 C182.53509,56.7641947 183.850419,57.3072499 185.38401,57.3072499 C186.941194,57.3072499 188.256524,56.7641947 189.330037,55.6780682 C190.403551,54.5919417 190.9403,53.2815261 190.9403,51.7467821 L190.9403,1.77340626 L201.097339,1.77340626 L201.097339,51.8530331 C201.097339,56.1739277 199.587365,59.8100359 196.56737,62.7614666 C193.547376,65.7128974 189.902203,67.1885907 185.631742,67.1885907 Z M240.416058,51.7113662 C240.416058,54.4975169 239.731851,57.0829315 238.363416,59.4676876 C239.212789,60.4593684 240.439643,60.9552013 242.044015,60.9552013 L242.044015,70.0219515 C237.183712,70.0219515 233.857049,68.4872305 232.063927,65.4177424 C229.9169,66.5983148 227.569362,67.1885921 225.021241,67.1885921 C220.727187,67.1885921 217.082014,65.6774822 214.085613,62.655217 C211.089212,59.6329518 209.591034,55.985038 209.591034,51.7113662 L209.591034,16.4714583 C209.591034,12.174175 211.101009,8.52035844 214.121003,5.50989899 C217.140998,2.49943954 220.774374,0.994232398 225.021241,0.994232398 C229.315296,0.994232398 232.95457,2.51714786 235.939174,5.56302448 C238.923778,8.6089011 240.416058,12.2450093 240.416058,16.4714583 L240.416058,51.7113662 Z M230.329796,16.2589562 C230.329796,14.7006008 229.781251,13.3842825 228.684144,12.3099617 C227.587036,11.2356409 226.25991,10.6984886 224.702726,10.6984886 C223.169135,10.6984886 221.859704,11.2356409 220.774393,12.3099617 C219.689083,13.3842825 219.146436,14.7006008 219.146436,16.2589562 L219.146436,51.6405309 C219.146436,53.1752749 219.689083,54.4856905 220.774393,55.571817 C221.859704,56.6579435 223.169135,57.2009986 224.702726,57.2009986 C226.25991,57.2009986 227.587036,56.6579435 228.684144,55.571817 C229.781251,54.4856905 230.329796,53.1752749 230.329796,51.6405309 L230.329796,16.2589562 Z" id="path-1"></path>
        <path d="M26.5966686,15.5228497 C26.5477408,15.5318996 26.4782838,15.544236 26.3881863,15.559843 C26.2979143,15.5760534 26.1329973,15.6051717 25.8934354,15.647198 C25.6538735,15.6892243 25.3268319,15.7460638 24.9123422,15.8177165 L22.8189202,32.8800775 C23.2156569,32.9517302 23.5287532,33.0086014 23.758225,33.0506912 C23.9876808,33.092781 24.1454109,33.1219153 24.2313994,33.1380939 C24.3173878,33.1542884 24.3838781,33.1666248 24.4309021,33.1751189 C24.9588267,33.2912271 25.188235,33.6301842 25.1191587,34.1919744 L24.8846577,36.1032741 L15.5760755,36.1032741 L15.8105765,34.1919744 C15.8793196,33.6302477 16.1919083,33.2912906 16.7483423,33.1751189 C16.7966989,33.16672 16.8661878,33.1543836 16.9568088,33.1381256 C17.0474298,33.1218518 17.2123944,33.0927175 17.4516548,33.0507389 C17.6909312,33.0087602 18.0179411,32.9519366 18.4327005,32.880268 L20.5261383,15.8177483 C20.1289732,15.746048 19.8158769,15.6892085 19.5868335,15.6472298 C19.3577743,15.6052511 19.2000442,15.5761328 19.1136274,15.5598748 C19.0272899,15.5429817 18.9607837,15.5306453 18.9141247,15.5228656 C18.3862001,15.4067098 18.1567759,15.0677527 18.2258681,14.5059783 L18.4603691,12.5946787 L27.7689671,12.5946787 L27.5344503,14.5059783 C27.4657071,15.0676733 27.1531027,15.4066304 26.5966686,15.5228497 Z M40.3348131,19.1145026 C41.1576527,19.1145026 41.8170191,19.304391 42.3120873,19.6840725 L41.4231698,22.6918665 C41.3665634,22.8869307 41.2791629,23.0250285 41.1613175,23.1063185 C41.0426154,23.1876403 40.8914693,23.2282853 40.7076888,23.2282853 C40.5448819,23.2282853 40.3276579,23.1903076 40.0553189,23.1143205 C39.7829798,23.0386827 39.4140862,23.0005462 38.9484794,23.0005462 C38.114328,23.0005462 37.3710673,23.2309526 36.7193479,23.6917336 C36.0668034,24.1523559 35.4805114,24.827063 34.9601385,25.7156326 L34.2483382,31.5183106 L33.6855105,36.1044009 L29.6723725,36.1044009 L30.0680621,32.881379 L30.3024362,30.9705874 L30.4421119,29.8332575 L31.3238742,22.64703 C29.9696831,22.4026519 29.9560233,22.3961741 29.7116543,22.3520044 C29.1837931,22.2359121 28.954242,21.8968756 29.0233184,21.3351489 L29.2578669,19.4236905 L31.7190562,19.4236905 L31.7190562,19.4233412 L34.0745527,19.4233412 C34.486377,19.4233412 34.7640467,19.4993283 34.9080377,19.6509214 C35.0515369,19.8030227 35.1279429,20.0632142 35.137097,20.4314008 L35.1332735,22.4474566 C35.8552274,21.4176138 36.6536032,20.6048089 37.5285436,20.0085975 C38.4029763,19.4127036 39.3383466,19.1145026 40.3348131,19.1145026 Z M57.2913509,33.1422537 C57.8192121,33.2583619 58.0487791,33.5975413 57.9795282,34.1592839 L57.7451383,36.0707582 L55.7194281,36.0707582 L55.7192536,36.0717584 L53.6071425,36.0717584 C53.1200703,36.0717584 52.7788135,35.9578095 52.5838799,35.7304039 C52.3889463,35.5026807 52.2913923,35.2156412 52.2913923,34.8686345 L52.4214062,32.5925141 C51.6846343,33.7416564 50.8561308,34.6492308 49.935753,35.3157613 C49.0150261,35.9824506 48.0025835,36.3156444 46.8979175,36.3156444 C46.2695196,36.3156444 45.6818949,36.1908674 45.1352177,35.9416468 C44.5882074,35.6924262 44.111622,35.3214294 43.7056201,34.8279895 C43.2994437,34.334883 42.9798268,33.7171583 42.7471027,32.9746724 C42.5140613,32.2323454 42.3978659,31.362574 42.3978659,30.3653582 C42.3978659,29.3681425 42.5222159,28.3980923 42.7715825,27.4551916 C43.0206158,26.512291 43.3751833,25.6261822 43.8356181,24.7970717 C44.2957357,23.96812 44.8509006,23.2067882 45.5007797,22.5129493 C46.1504843,21.819428 46.8787843,21.2232007 47.685632,20.7246008 C48.492321,20.2261596 49.3642788,19.8383332 50.3011404,19.5621218 C51.2378434,19.2857517 52.2263139,19.1474792 53.2660603,19.1474792 C54.0134776,19.1474792 54.7634174,19.2019531 55.5161654,19.3100752 C56.2685961,19.4185306 57.0078588,19.6136108 57.733652,19.8952997 L56.1089463,32.9405211 L56.1309193,32.9288515 C56.4833292,32.9928198 56.7570009,33.0429751 56.9492692,33.0787776 C57.1452023,33.1152629 57.2593988,33.1364269 57.2913509,33.1422537 Z M52.8925021,27.0811939 L53.526072,22.041324 C53.2336002,22.008681 52.9627524,21.9925182 52.7137191,21.9925182 C51.8148067,21.9925182 50.9808139,22.1984265 50.212074,22.6102271 C49.4430168,23.022377 48.7768126,23.5776259 48.2138263,24.2766407 C47.6505068,24.9759888 47.2092052,25.7886191 46.8899374,26.715357 C46.5703205,27.6419362 46.4106707,28.6201631 46.4106707,29.6498472 C46.4106707,30.8203123 46.5946257,31.676763 46.9628372,32.2185165 C47.3309058,32.7606034 47.8344617,33.0313055 48.4736796,33.0313055 C48.9176465,33.0313055 49.3534588,32.8797123 49.7814337,32.5761767 C50.2090914,32.2728157 50.6126025,31.8528384 50.9918084,31.3162608 C51.3708398,30.7796673 51.7227578,30.148463 52.0476894,29.4222828 C52.3726369,28.6962931 52.6541301,27.9159725 52.8925021,27.0811939 Z M75.1867349,38.6383325 C75.7145009,38.7544407 75.9438458,39.0933026 75.874817,39.6549975 L75.6403161,41.5662814 L66.5817662,41.5662814 L66.8162671,39.6549975 C66.8850262,39.0932549 67.1976307,38.7542978 67.7540489,38.6381261 C67.8022945,38.6297907 67.871815,38.6174543 67.9626106,38.6011169 C68.0535172,38.5847795 68.2182279,38.5556929 68.4567427,38.5138572 C68.6952893,38.4720214 69.0221088,38.4152136 69.4372173,38.3434498 L69.9693461,34.0064369 C69.2227062,34.7106276 68.4066251,35.2715446 67.5210869,35.689172 C66.6355962,36.1065296 65.6352745,36.3152163 64.5201217,36.3152163 C63.6106749,36.3152163 62.8023835,36.1282492 62.0952951,35.7542993 C61.3883019,35.3800636 60.8052938,34.8353728 60.3463027,34.1202271 C59.8872164,33.4050496 59.5732634,32.5217828 59.4044595,31.4704266 C59.2355604,30.4183242 59.2348465,29.2098815 59.402286,27.8450824 C59.5552566,26.5983762 59.8647357,25.4440104 60.3307391,24.3820008 C60.7967743,23.3201976 61.3890475,22.3989531 62.1075746,21.6182673 C62.8264507,20.8377243 63.6539547,20.2280016 64.5901024,19.789099 C65.5267419,19.3501806 66.5419608,19.1307769 67.635791,19.1309039 C70.0430868,19.1309039 72.7298926,19.4343761 75.6962244,20.0413203 L75.0535004,25.2730949 L73.4498793,38.343291 C73.846743,38.4149596 74.1703102,38.4718467 74.420581,38.5139524 C74.6709946,38.5560422 74.8494127,38.5851606 74.9558195,38.6012916 C75.0623055,38.6173908 75.1392668,38.6297431 75.1867349,38.6383325 Z M68.4848886,32.6651826 C69.1181094,32.3131588 69.7286115,31.8173373 70.316379,31.1778135 L71.3812238,22.4961195 C70.3210116,22.2903224 69.2560558,22.1874239 68.1863405,22.1874239 C67.5798999,22.1874239 67.0189918,22.3011982 66.5036006,22.5287626 C65.9880824,22.7564222 65.5313441,23.1032702 65.1334334,23.5693065 C64.7350785,24.0350887 64.4002629,24.6230442 64.128971,25.3331728 C63.8577742,26.0430156 63.6629834,26.8803027 63.5446462,27.8450342 C63.4251032,28.8193553 63.4022258,29.6457508 63.4760141,30.3242367 C63.55031,31.002135 63.7075641,31.5521604 63.9477448,31.9743128 C64.1880841,32.3966874 64.5049245,32.7056054 64.8982503,32.9010666 C65.2915601,33.0960991 65.7533435,33.1936153 66.283632,33.1936153 C67.1171646,33.1936153 67.8509221,33.0174764 68.4848886,32.6651826 Z M83.7799593,33.175579 C84.307646,33.2920206 84.5370384,33.6310253 84.4684539,34.1922757 L84.2340798,36.1035753 L77.7602288,36.1035753 L78.1555852,32.8803629 L79.4112386,22.6458869 C79.0140577,22.5740913 78.7009297,22.5172835 78.4718704,22.4754636 C78.242827,22.433485 78.0851762,22.4044936 77.9986166,22.3881721 C77.9123902,22.3720094 77.8456302,22.3596889 77.7991933,22.3511788 C77.2711576,22.2350548 77.0417652,21.8962088 77.1108573,21.3343233 L77.3454059,19.4230237 L83.8190825,19.4230237 L82.1678981,32.8807121 C82.5649204,32.952349 82.8780484,33.0091567 83.1072663,33.0511354 C83.3365001,33.0932728 83.4944682,33.1222641 83.5806946,33.1385857 C83.666921,33.1549072 83.7335065,33.1672277 83.7799593,33.175579 Z M85.016591,14.5618651 C84.9740092,14.9086972 84.8636997,15.2339049 84.6856941,15.5373929 C84.5076409,15.8409444 84.2882434,16.1064865 84.02747,16.3340191 C83.7666965,16.5616311 83.4709565,16.7431841 83.14025,16.8786622 C82.8095594,17.0141402 82.4654945,17.0818872 82.1080872,17.0818872 C81.7615474,17.0816014 81.442232,17.0138544 81.150141,16.8786622 C80.8581134,16.7431047 80.6123324,16.5615517 80.4127979,16.3340191 C80.2132794,16.1064071 80.0644495,15.840865 79.9663085,15.537377 C79.8681674,15.233889 79.8403719,14.908729 79.8829219,14.5618969 C79.9268204,14.2041414 80.0357338,13.8681374 80.2096621,13.5539007 C80.3836222,13.2394418 80.5982919,12.9684698 80.8536395,12.7409848 C81.1090188,12.5132775 81.3993488,12.3317245 81.7246295,12.1963258 C82.0499895,12.0602921 82.3859314,11.9925451 82.7324395,11.9931008 C83.0898468,11.9931008 83.4172851,12.0608478 83.7147385,12.1963258 C84.0122078,12.3318039 84.2633988,12.5133569 84.4683274,12.7409689 C84.6732559,12.9685809 84.8268294,13.2395529 84.9290795,13.553869 C85.0313137,13.8681851 85.0604736,14.2041891 85.016591,14.5618651 Z" id="path-2"></path>
    </defs>
    <g id="New-Home-Page" stroke="none" stroke-width="1" fill="none" fill-rule="evenodd">
        <g id="Client-List-Slider" transform="translate(-651.000000, -378.000000)">
            <g id="Iraqi" transform="translate(624.000000, 222.000000)">
                <g id="Logo-Drak" transform="translate(25.000000, 146.000000)">
                    <g id="Logo-Dark" transform="translate(1.099174, 9.900000)">
                        <g id="SOUQ">
                            <use fill="#070B34" xlink:href="#path-1"></use>
                            <use fill="#FFFFFF" xlink:href="#path-1"></use>
                        </g>
                        <ellipse id="Oval" fill="#E94D34" fill-rule="nonzero" transform="translate(252.769178, 64.859226) rotate(-81.570000) translate(-252.769178, -64.859226) " cx="252.769178" cy="64.8592258" rx="5.77066116" ry="5.775"></ellipse>
                        <path d="M17.1690909,68.9039995 C16.946843,70.465803 15.8049512,71.7390982 14.2773544,72.1285029 C12.7497576,72.5179077 11.1383255,71.9464715 10.1965502,70.6813931 C9.25477488,69.4163146 9.16876131,67.7075871 9.9787287,66.3541972 C10.7886961,65.0008072 12.3345861,64.2701993 13.8935537,64.5039995 C16.0078508,64.8210831 17.4705071,66.7858563 17.1690909,68.9039995 Z M32.2497513,68.6839996 C30.9819517,68.4922698 29.7237917,69.0848115 29.0633586,70.1846598 C28.4029255,71.2845081 28.4706681,72.6744209 29.2349221,73.7047273 C29.9991762,74.7350337 31.3089863,75.2022276 32.552123,74.887934 C33.7952598,74.5736403 34.7261788,73.5399384 34.9097513,72.2699996 C35.1457904,70.5540299 33.960919,68.9664805 32.2497513,68.7059996 L32.2497513,68.6839996 Z M43.5272717,50.1599998 C43.0216519,52.0959998 42.4061147,54.0539998 41.7246271,55.9459998 C41.0716581,57.9037104 40.1937695,59.7789319 39.1085941,61.5339998 C38.1457235,63.1299123 36.7712938,64.4369823 35.1295859,65.3179999 C33.8696885,65.8955487 32.491229,66.1669249 31.1066108,66.1099999 C29.0796726,66.0688576 27.0618773,65.8256558 25.0831399,65.3839999 C23.0341192,64.966819 21.014636,64.4156367 19.0376855,63.7339999 C17.0924367,63.0813679 15.209085,62.256782 13.409917,61.2699998 C12.4341861,60.7690387 11.5497914,60.1071033 10.793884,59.3119998 C9.60879723,57.8268805 8.8489748,56.0475591 8.59553699,54.1639998 C8.28287932,52.2003557 8.15774174,50.211382 8.22181799,48.2239998 C8.22181799,45.5399998 8.5076031,42.8779997 8.68347087,40.2159997 C7.32049569,39.7539997 5.97950399,39.2479997 4.66049576,38.6979997 L3.93504123,38.4999997 C2.83256598,38.1150123 1.91466448,37.3298912 1.36297517,36.2999997 C1.08895014,35.6011941 0.998136729,34.8438466 1.09917353,34.0999997 C1.13154666,33.3571087 1.24207461,32.6197016 1.42892559,31.8999997 C1.59019141,31.1784553 1.99364492,30.5339972 2.57206605,30.0739997 C3.22340954,29.654154 4.02068733,29.5264937 4.77041311,29.7219997 C5.47388417,29.8539997 6.15537176,30.0959997 6.83685934,30.2939997 C7.62407893,30.4634625 8.37076953,30.7847809 9.0352064,31.2399997 C9.88569554,31.9657324 10.4280746,32.9883743 10.5520659,34.0999997 C10.7574932,35.7414621 10.8310072,37.3967714 10.7719006,39.0499997 C11.8417628,39.3433331 12.9189529,39.6219997 14.0034707,39.8859997 C17.8009993,40.8257608 21.6463479,41.5601577 25.5228093,42.0859997 C27.5452886,42.3353331 29.5677679,42.5406664 31.5902472,42.7019997 C33.6347099,42.8559997 35.7011562,42.9439997 37.7676024,43.0319997 C39.6244534,42.8779663 41.4623243,43.4990127 42.8457841,44.7479998 C43.9655226,46.3234604 44.2214363,48.355786 43.5272717,50.1599998 Z M8.79338869,38.4999995 C8.79338869,37.7299995 8.79338869,36.9819995 8.79338869,36.2999995 C8.79338869,35.6179996 8.79338869,35.3539996 8.79338869,34.8699996 C8.79338869,34.3859996 8.79338869,34.3639996 8.79338869,34.1219996 C8.774573,33.912069 8.73028,33.7052129 8.66148786,33.5059996 C8.53415127,33.0520003 8.26442194,32.6509583 7.89206634,32.3619997 C6.97334765,31.8292962 5.98055358,31.4363287 4.94628111,31.1959997 C4.52272731,30.9908666 4.04190036,30.9365389 3.58330585,31.0419997 C3.18664049,31.2500835 2.89840439,31.618662 2.79190086,32.0539997 C2.60750319,32.593998 2.49658967,33.1563823 2.46214878,33.7259996 C2.38840552,34.2219359 2.38840552,34.7260633 2.46214878,35.2219996 C2.78239027,36.1449685 3.52691456,36.8573016 4.46264473,37.1359995 C5.88424258,37.6493328 7.3278239,38.1039995 8.79338869,38.4999995 Z M40.3836369,47.102 C40.2368224,46.7750259 39.9427277,46.5379381 39.5922319,46.464 C38.7892526,46.2450605 37.9622002,46.1268213 37.1300831,46.112 C33.1290912,45.76 29.1500828,45.254 25.2150414,44.5059999 C21.28,43.7579999 17.8725618,42.9439999 14.2233055,41.9099999 L10.7279335,40.8319999 C10.7279335,43.6039999 10.5960327,46.376 10.7279335,49.126 C10.8158865,50.7369666 11.0588285,52.3356954 11.4533881,53.9000001 C11.7013329,55.2880964 12.3870003,56.5602333 13.4099171,57.5300002 L13.6737187,57.7060002 L13.8056196,57.7060002 L14.289256,58.3000002 C14.9047932,58.6520002 15.5642973,58.9600002 16.201818,59.2240002 C17.553423,59.7295744 18.9334084,60.1556347 20.3347107,60.5000002 C23.2008077,61.3838748 26.1456703,61.9880255 29.1280994,62.3040003 C30.3738479,62.4955498 31.6415245,62.4955498 32.887273,62.3040003 C33.5690581,62.1251895 34.1911494,61.7683569 34.6899177,61.2700002 C35.3314862,60.6594283 35.886253,59.9635979 36.3386781,59.2020002 C37.2846122,57.5226997 38.0439055,55.744765 38.6029757,53.9000001 C38.9327278,52.9320001 39.2624798,51.9420001 39.5702484,50.9740001 C39.8979706,50.0919668 40.1624427,49.1876746 40.3616534,48.268 C40.4488129,47.9072942 40.4563151,47.5319049 40.3836369,47.168 L40.3836369,47.102 Z" id="Shape" fill="#FFFFFF" fill-rule="nonzero"></path>
                        <g id="Iraqi" transform="translate(50.306220, 26.779689) rotate(-0.140000) translate(-50.306220, -26.779689) ">
                            <use fill="#000000" xlink:href="#path-2"></use>
                            <use fill="#E94D34" xlink:href="#path-2"></use>
                        </g>
                    </g>
                </g>
            </g>
        </g>
    </g>
</svg>