<?xml version="1.0" encoding="UTF-8"?>
<svg width="315px" height="391px" viewBox="0 0 315 391" version="1.1" xmlns="http://www.w3.org/2000/svg" xmlns:xlink="http://www.w3.org/1999/xlink">
    <!-- Generator: sketchtool 52.1 (67048) - http://www.bohemiancoding.com/sketch -->
    <title>7AA595DA-CEDE-43F4-A8B1-DC928550A1EB</title>
    <desc>Created with sketchtool.</desc>
    <defs>
        <path d="M123.11866,50.3301025 C123.189494,54.8398888 122.020745,58.6884968 119.612378,61.876042 C118.030411,64.048295 115.799163,65.5712105 112.918566,66.444834 C111.360211,66.9406744 109.553962,67.1885908 107.499767,67.1885908 C103.674712,67.1885908 100.510826,66.2441471 98.0080127,64.3552314 C95.9302054,62.796876 94.277429,60.689586 93.0496338,58.0332983 C91.8218386,55.3770106 91.1135058,52.3134715 90.9246143,48.8425889 L100.168449,48.205083 C100.593455,51.959303 101.596927,54.6745785 103.178894,56.3509912 C104.335854,57.6260093 105.669881,58.2280922 107.181014,58.1572578 C109.306044,58.0864235 111.006042,57.0475354 112.281061,55.0405625 C112.942181,54.0252703 113.272736,52.5967992 113.272736,50.7551064 C113.272736,48.0397901 112.056765,45.3599312 109.624786,42.7154492 C107.688648,40.8973679 104.796289,38.1702867 100.947623,34.534124 C97.7128549,31.4174131 95.4343845,28.6194987 94.1121436,26.1402969 C92.6718453,23.3541462 91.951707,20.3319264 91.951707,17.0735469 C91.951707,11.1942968 93.9232332,6.74360593 97.8663447,3.72134082 C100.298324,1.90325946 103.320543,0.994232422 106.933095,0.994232422 C110.403977,0.994232422 113.378975,1.77339846 115.858177,3.33175391 C117.770704,4.53593766 119.31723,6.21822797 120.497803,8.37867529 C121.678375,10.5391226 122.398513,13.0241901 122.658239,15.8339521 L113.308153,17.5339678 C113.048427,14.8894858 112.292872,12.8353208 111.041466,11.3714111 C110.144231,10.2852846 108.857426,9.74222949 107.181014,9.74222949 C105.410155,9.74222949 104.052517,10.5332011 103.10806,12.115168 C102.352493,13.3901861 101.974716,14.9721292 101.974716,16.8610449 C101.974716,19.8124757 103.249715,22.8228899 105.799751,25.8923779 C106.76782,27.0493388 108.208097,28.4187821 110.120624,30.000749 C112.387323,31.8896647 113.886627,33.2118859 114.618582,33.9674521 C117.003338,36.3758197 118.856809,38.7487344 120.17905,41.0862676 C120.792947,42.1723941 121.28878,43.1876711 121.666563,44.1321289 C122.58741,46.4224392 123.071437,48.4884097 123.11866,50.3301025 Z M146.423041,0.994232422 C150.720324,0.994232422 154.374141,2.50534231 157.3846,5.52760742 C160.395059,8.54987253 161.900267,12.1977862 161.900267,16.471458 L161.900267,51.7113652 C161.900267,56.0086484 160.389157,59.6624649 157.366892,62.6729243 C154.344626,65.6833837 150.696713,67.1885908 146.423041,67.1885908 C142.149369,67.1885908 138.519164,65.6774809 135.532316,62.6552158 C132.545468,59.6329507 131.052066,55.985037 131.052066,51.7113652 L131.052066,16.471458 C131.052066,12.1741748 132.563176,8.52035831 135.585441,5.50989893 C138.607707,2.49943954 142.220204,0.994232422 146.423041,0.994232422 Z M151.73559,16.2589561 C151.73559,14.7006006 151.198438,13.3842822 150.124117,12.3099614 C149.049796,11.2356406 147.733478,10.6984883 146.175122,10.6984883 C144.640378,10.6984883 143.32406,11.2356406 142.226127,12.3099614 C141.128195,13.3842822 140.579237,14.7006006 140.579237,16.2589561 L140.579237,51.6405313 C140.579237,53.1752753 141.128195,54.4856909 142.226127,55.5718174 C143.32406,56.6579439 144.640378,57.200999 146.175122,57.200999 C147.733478,57.200999 149.049796,56.6579439 150.124117,55.5718174 C151.198438,54.4856909 151.73559,53.1752753 151.73559,51.6405313 L151.73559,16.2589561 Z M185.771319,67.1885908 C181.497648,67.1885908 177.867442,65.6951893 174.880594,62.7083413 C171.893746,59.7214934 170.400345,56.1030935 170.400345,51.8530332 L170.400345,1.77340625 L179.927516,1.77340625 L179.927516,51.7467822 C179.927516,53.2815262 180.476474,54.5919418 181.574406,55.6780684 C182.672338,56.7641949 183.988656,57.30725 185.5234,57.30725 C187.081756,57.30725 188.398074,56.7641949 189.472395,55.6780684 C190.546716,54.5919418 191.083868,53.2815262 191.083868,51.7467822 L191.083868,1.77340625 L201.248545,1.77340625 L201.248545,51.8530332 C201.248545,56.1739279 199.737435,59.810036 196.71517,62.7614668 C193.692905,65.7128976 190.044991,67.1885908 185.771319,67.1885908 Z M240.596823,51.7113652 C240.596823,54.4975159 239.912102,57.0829305 238.542638,59.4676865 C239.39265,60.4593673 240.620427,60.9552002 242.226005,60.9552002 L242.226005,70.0219502 C237.362047,70.0219502 234.032883,68.4872292 232.238413,65.4177412 C230.089771,66.5983135 227.740468,67.1885908 225.190432,67.1885908 C220.893148,67.1885908 217.245235,65.6774809 214.246581,62.6552158 C211.247927,59.6329507 209.748623,55.985037 209.748623,51.7113652 L209.748623,16.471458 C209.748623,12.1741748 211.259733,8.52035831 214.281998,5.50989893 C217.304263,2.49943954 220.940371,0.994232422 225.190432,0.994232422 C229.487715,0.994232422 233.129726,2.51714786 236.116574,5.56302441 C239.103422,8.60890097 240.596823,12.2450091 240.596823,16.471458 L240.596823,51.7113652 Z M230.50298,16.2589561 C230.50298,14.7006006 229.954023,13.3842822 228.85609,12.3099614 C227.758158,11.2356406 226.430034,10.6984883 224.871679,10.6984883 C223.336935,10.6984883 222.026519,11.2356406 220.940393,12.3099614 C219.854266,13.3842822 219.311211,14.7006006 219.311211,16.2589561 L219.311211,51.6405313 C219.311211,53.1752753 219.854266,54.4856909 220.940393,55.5718174 C222.026519,56.6579439 223.336935,57.200999 224.871679,57.200999 C226.430034,57.200999 227.758158,56.6579439 228.85609,55.5718174 C229.954023,54.4856909 230.50298,53.1752753 230.50298,51.6405313 L230.50298,16.2589561 Z" id="path-1"></path>
        <path d="M26.6166661,15.5228494 C26.5677016,15.5318992 26.4981923,15.5442356 26.408027,15.5598427 C26.3176872,15.576053 26.1526462,15.6051714 25.9129042,15.6471977 C25.6731621,15.689224 25.3458746,15.7460635 24.9310732,15.8177162 L22.8360772,32.8800772 C23.2331122,32.9517299 23.5464439,33.0086011 23.7760882,33.0506909 C24.0057166,33.0927808 24.1635653,33.121915 24.2496184,33.1380936 C24.3356715,33.1542881 24.4022118,33.1666245 24.4492711,33.1751186 C24.9775927,33.2912268 25.2071735,33.6301839 25.1380452,34.1919741 L24.9033679,36.1032738 L15.5877864,36.1032738 L15.8224637,34.1919741 C15.8912586,33.6302475 16.2040822,33.2912903 16.7609347,33.1751186 C16.8093277,33.1667197 16.8788687,33.1543833 16.9695579,33.1381253 C17.0602471,33.1218515 17.2253357,33.0927172 17.464776,33.0507386 C17.7042323,33.0087599 18.0314881,32.9519363 18.4465593,32.8802677 L20.5415713,15.8177479 C20.1441076,15.7460476 19.8307758,15.6892081 19.6015602,15.6472294 C19.3723288,15.6052508 19.2144801,15.5761324 19.1279983,15.5598744 C19.0415959,15.5429813 18.9750397,15.5306449 18.9283456,15.5228652 C18.400024,15.4067094 18.1704273,15.0677523 18.2395715,14.505978 L18.4742488,12.5946783 L27.7898461,12.5946783 L27.555153,14.505978 C27.4863581,15.0676729 27.1735186,15.40663 26.6166661,15.5228494 Z M40.3651391,19.1145025 C41.1885974,19.1145025 41.8484595,19.3043909 42.3438999,19.6840724 L41.4543141,22.6918664 C41.3976651,22.8869307 41.310199,23.0250285 41.192265,23.1063185 C41.0734736,23.1876403 40.9222138,23.2282853 40.7382952,23.2282853 C40.5753658,23.2282853 40.3579786,23.1903076 40.0854347,23.1143205 C39.8128909,23.0386827 39.4437199,23.0005462 38.9777631,23.0005462 C38.1429845,23.0005462 37.399165,23.2309526 36.7469555,23.6917336 C36.0939204,24.1523558 35.5071875,24.827063 34.9864234,25.7156327 L34.2740879,31.5183107 L33.710837,36.1044011 L29.6946817,36.1044011 L30.0906688,32.8813791 L30.3252191,30.9705875 L30.4649998,29.8332576 L31.3474251,22.6470299 C29.9922158,22.4026518 29.9785458,22.396174 29.733993,22.3520043 C29.205735,22.235912 28.9760113,21.8968755 29.0451395,21.3351488 L29.2798645,19.4236904 L31.7429042,19.4236904 L31.7429042,19.4233411 L34.1001717,19.4233411 C34.5123057,19.4233411 34.7901842,19.4993282 34.9342835,19.6509214 C35.0778905,19.8030226 35.154354,20.0632141 35.163515,20.4314007 L35.1596886,22.4474566 C35.8821854,21.4176137 36.6811614,20.6048089 37.5567596,20.0085974 C38.4318498,19.4127035 39.3679234,19.1145025 40.3651391,19.1145025 Z M57.3344272,33.1422533 C57.8626852,33.2583615 58.0924248,33.5975409 58.0231219,34.1592835 L57.7885557,36.0707578 L55.7613225,36.0707578 L55.7611479,36.0717581 L53.6474487,36.0717581 C53.1600103,36.0717581 52.818497,35.9578092 52.6234168,35.7304035 C52.4283367,35.5026804 52.3307093,35.2156409 52.3307093,34.8686341 L52.4608209,32.5925138 C51.7234951,33.7416561 50.8943687,34.6492305 49.9732989,35.315761 C49.0518798,35.9824502 48.038676,36.315644 46.9331794,36.315644 C46.3043091,36.315644 45.7162425,36.190867 45.1691544,35.9416464 C44.6217328,35.6924259 44.1447891,35.321429 43.7384819,34.8279891 C43.3320001,34.3348826 43.0121429,33.7171579 42.7792439,32.9746721 C42.5460273,32.232345 42.4297444,31.3625736 42.4297444,30.3653579 C42.4297444,29.3681422 42.554188,28.398092 42.803742,27.4551913 C43.0529626,26.5122907 43.4077967,25.6261819 43.8685777,24.7970714 C44.3290411,23.9681196 44.8846235,23.2067879 45.5349912,22.512949 C46.1851843,21.8194277 46.9140318,21.2232004 47.7214862,20.7246005 C48.5287817,20.2261593 49.4013951,19.8383329 50.3389611,19.5621215 C51.2763683,19.2857514 52.265582,19.147479 53.3061101,19.147479 C54.0540893,19.147479 54.804593,19.2019528 55.5579069,19.3100749 C56.3109033,19.4185304 57.0507218,19.6136105 57.7770608,19.8952995 L56.1511335,32.9405207 L56.1731231,32.9288512 C56.5257979,32.9928194 56.7996754,33.0429747 56.9920882,33.0787773 C57.1881686,33.1152625 57.302451,33.1364265 57.3344272,33.1422533 Z M52.9322713,27.0811937 L53.5663175,22.0413241 C53.2736258,22.008681 53.0025744,21.9925183 52.7533539,21.9925183 C51.8537655,21.9925183 51.0191457,22.1984265 50.2498278,22.6102271 C49.4801924,23.022377 48.8134873,23.5776259 48.2500776,24.2766407 C47.6863346,24.9759888 47.2447012,25.788619 46.9251933,26.7153569 C46.6053362,27.6419361 46.4455664,28.6201629 46.4455664,29.649847 C46.4455664,30.8203121 46.6296597,31.6767627 46.9981479,32.2185162 C47.3664933,32.7606031 47.8704279,33.0313052 48.5101263,33.0313052 C48.954427,33.0313052 49.390567,32.879712 49.8188638,32.5761764 C50.246843,32.2728154 50.6506575,31.8528381 51.0301485,31.3162605 C51.4094648,30.7796671 51.7616474,30.1484628 52.0868234,29.4222826 C52.4120152,28.6962929 52.69372,27.9159723 52.9322713,27.0811937 Z M75.2432653,38.6383315 C75.7714281,38.7544397 76.0009454,39.0933015 75.9318647,39.6549965 L75.6971874,41.5662803 L66.6318268,41.5662803 L66.8665041,39.6549965 C66.9353148,39.0932539 67.2481543,38.7542968 67.8049909,38.6381251 C67.8532727,38.6297897 67.9228455,38.6174533 68.0137094,38.6011159 C68.1046843,38.5847785 68.2695189,38.5556919 68.508213,38.5138561 C68.7469389,38.4720204 69.0740042,38.4152126 69.4894248,38.3434488 L70.0219537,34.006436 C69.2747524,34.7106267 68.4580577,35.2715436 67.5718537,35.6891711 C66.6856973,36.1065286 65.6846235,36.3152153 64.5686322,36.3152153 C63.6585016,36.3152153 62.8496025,36.1282483 62.1419825,35.7542983 C61.4344577,35.3800626 60.8510113,34.8353719 60.3916751,34.1202262 C59.9322436,33.4050487 59.6180546,32.5217819 59.4491238,31.4704258 C59.2800977,30.4183234 59.2793832,29.2098807 59.4469486,27.8450817 C59.6000342,26.5983755 59.909746,25.4440097 60.3760998,24.3820001 C60.8424854,23.320197 61.4352039,22.3989525 62.1542712,21.6182667 C62.8736878,20.8377238 63.701814,20.2280011 64.6386655,19.7890985 C65.5760092,19.3501801 66.5919915,19.1307764 67.6866441,19.1309034 C70.0957498,19.1309034 72.7845758,19.4343756 75.7531378,20.0413198 L75.1099306,25.2730943 L73.5051038,38.34329 C73.9022658,38.4149586 74.2260764,38.4718457 74.4765353,38.5139514 C74.7271372,38.5560412 74.9056894,38.5851596 75.0121762,38.6012905 C75.1187423,38.6173898 75.1957614,38.629742 75.2432653,38.6383315 Z M68.5363787,32.6651826 C69.1700757,32.3131587 69.7810368,31.8173373 70.3692463,31.1778135 L71.4348917,22.4961195 C70.3738823,22.2903224 69.3081258,22.1874238 68.2376062,22.1874238 C67.6307096,22.1874238 67.0693798,22.3011981 66.553601,22.5287625 C66.0376952,22.7564221 65.5806135,23.1032701 65.1824036,23.5693064 C64.7837491,24.0350886 64.4486818,24.6230441 64.1771859,25.3331727 C63.9057852,26.0430155 63.710848,26.8803026 63.5924217,27.8450341 C63.4727889,28.8193552 63.4498943,29.6457508 63.523738,30.3242366 C63.5980898,31.002135 63.7554622,31.5521604 63.9958234,31.9743127 C64.2363434,32.3966874 64.5534221,32.7056053 64.9470436,32.9010665 C65.3406492,33.096099 65.8027798,33.1936153 66.333467,33.1936153 C67.1676264,33.1936153 67.9019356,33.0174763 68.5363787,32.6651826 Z M83.8429519,33.1755791 C84.3710353,33.2920207 84.6006002,33.6310254 84.5319642,34.1922758 L84.2974139,36.1035755 L77.8186951,36.1035755 L78.2143488,32.880363 L79.4709464,22.6458868 C79.0734668,22.5740912 78.7601033,22.5172834 78.5308718,22.4754635 C78.3016562,22.4334849 78.1438869,22.4044935 78.0572622,22.388172 C77.970971,22.3720093 77.9041608,22.3596888 77.8576889,22.3511787 C77.3292562,22.2350547 77.0996913,21.8962087 77.1688354,21.3343232 L77.4035603,19.4230235 L83.8821045,19.4230235 L82.2296786,32.8807123 C82.6269994,32.9523491 82.9403629,33.0091568 83.1697531,33.0511355 C83.3991593,33.0932729 83.5572461,33.1222643 83.6435374,33.1385858 C83.7298286,33.1549073 83.7964642,33.1672278 83.8429519,33.1755791 Z M85.080513,14.5618649 C85.0378992,14.908697 84.9275068,15.2339046 84.7493673,15.5373926 C84.5711802,15.8409442 84.3516178,16.1064862 84.0906483,16.3340189 C83.8296788,16.5616309 83.5337165,16.7431839 83.2027613,16.878662 C82.871822,17.0141401 82.5274985,17.081887 82.1698224,17.081887 C81.8230221,17.0816012 81.5034666,17.0138543 81.211156,16.878662 C80.9189089,16.7431045 80.6729431,16.5615516 80.4732586,16.3340189 C80.27359,16.1064069 80.1246483,15.8408648 80.0264334,15.5373768 C79.9282186,15.2338888 79.9004021,14.9087287 79.9429841,14.5618966 C79.9869157,14.2041412 80.095911,13.8681372 80.26997,13.5539004 C80.4440609,13.2394415 80.658892,12.9684695 80.9144316,12.7409844 C81.1700029,12.5132771 81.4605512,12.3317241 81.7860764,12.1963255 C82.111681,12.0602917 82.4478756,11.9925447 82.7946442,11.9931004 C83.1523202,11.9931004 83.4800047,12.0608474 83.7776818,12.1963255 C84.0753747,12.3318035 84.3267545,12.5133565 84.5318372,12.7409686 C84.7369198,12.9685806 84.8906087,13.2395526 84.9929357,13.5538687 C85.0952468,13.8681848 85.1244286,14.2041888 85.080513,14.5618649 Z" id="path-2"></path>
    </defs>
    <g id="New-Home-Page" stroke="none" stroke-width="1" fill="none" fill-rule="evenodd">
        <g id="Client-List-Slider" transform="translate(-624.000000, -222.000000)">
            <g id="Iraqi" transform="translate(624.000000, 222.000000)">
                <rect id="Rectangle" fill="#070B34" fill-rule="nonzero" x="0" y="0" width="315" height="391"></rect>
                <g id="Logo-Drak" transform="translate(25.000000, 146.000000)">
                    <g id="Logo-Dark" transform="translate(1.100000, 9.900000)">
                        <g id="SOUQ">
                            <use fill="#070B34" xlink:href="#path-1"></use>
                            <use fill="#FFFFFF" xlink:href="#path-1"></use>
                        </g>
                        <circle id="Oval" fill="#E94D34" fill-rule="nonzero" transform="translate(252.959226, 64.859226) rotate(-81.570000) translate(-252.959226, -64.859226) " cx="252.959226" cy="64.8592259" r="5.775"></circle>
                        <path d="M17.182,68.904 C16.959585,70.4658034 15.8168346,71.7390986 14.2880893,72.1285033 C12.7593439,72.5179081 11.1467002,71.9464719 10.2042168,70.6813935 C9.26173339,69.416315 9.17565515,67.7075876 9.98623154,66.3541977 C10.7968079,65.0008077 12.3438603,64.2701998 13.904,64.504 C16.0198868,64.8210836 17.4836428,66.7858568 17.182,68.904 Z M32.274,68.684 C31.0052471,68.4922702 29.7461411,69.084812 29.0852115,70.1846602 C28.4242818,71.2845085 28.4920753,72.6744213 29.256904,73.7047277 C30.0217327,74.7350341 31.3325276,75.202228 32.5765991,74.8879344 C33.8206705,74.5736407 34.7522894,73.5399388 34.936,72.27 C35.1722165,70.5540304 33.9864543,68.9664809 32.274,68.706 L32.274,68.684 Z M43.56,50.16 C43.054,52.096 42.438,54.054 41.756,55.946 C41.10254,57.9037106 40.2239913,59.7789321 39.138,61.534 C38.1744054,63.1299124 36.7989422,64.4369824 35.156,65.318 C33.8951553,65.8955488 32.5156593,66.166925 31.13,66.11 C29.1015377,66.0688578 27.0822252,65.8256559 25.102,65.384 C23.0514386,64.9668191 21.030437,64.4156369 19.052,63.734 C17.1052886,63.081368 15.2205207,62.2567821 13.42,61.27 C12.4435354,60.7690388 11.5584758,60.1071035 10.802,59.312 C9.61602212,57.8268807 8.85562838,56.0475593 8.602,54.164 C8.28910725,52.2003559 8.16387558,50.2113823 8.228,48.224 C8.228,45.54 8.514,42.878 8.69,40.216 C7.326,39.754 5.984,39.248 4.664,38.698 L3.938,38.5 C2.8346958,38.1150126 1.91610412,37.3298915 1.364,36.3 C1.08976893,35.6011944 0.998887232,34.8438469 1.1,34.1 C1.13239747,33.357109 1.24300853,32.6197019 1.43,31.9 C1.59138708,31.1784556 1.99514395,30.5339975 2.574,30.074 C3.22583324,29.6541543 4.02371049,29.526494 4.774,29.722 C5.478,29.854 6.16,30.096 6.842,30.294 C7.6298115,30.4634629 8.37706354,30.7847812 9.042,31.24 C9.89312863,31.9657327 10.4359155,32.9883746 10.56,34.1 C10.7655818,35.7414624 10.8391511,37.3967717 10.78,39.05 C11.8506667,39.3433333 12.9286667,39.622 14.014,39.886 C17.814384,40.825761 21.6626239,41.560158 25.542,42.086 C27.566,42.3353333 29.59,42.5406667 31.614,42.702 C33.66,42.856 35.728,42.944 37.796,43.032 C39.6542472,42.8779666 41.4935,43.499013 42.878,44.748 C43.9985804,46.3234607 44.2546865,48.3557862 43.56,50.16 Z M8.8,38.5 C8.8,37.73 8.8,36.982 8.8,36.3 C8.8,35.618 8.8,35.354 8.8,34.87 C8.8,34.386 8.8,34.364 8.8,34.122 C8.78117016,33.9120694 8.73684386,33.7052133 8.668,33.506 C8.54056768,33.0520007 8.27063555,32.6509587 7.898,32.362 C6.97859058,31.8292965 5.98505008,31.436329 4.95,31.196 C4.52612776,30.9908669 4.0449393,30.9365392 3.586,31.042 C3.18903641,31.2500838 2.9005836,31.6186623 2.794,32.054 C2.60946369,32.5939983 2.49846678,33.1563827 2.464,33.726 C2.3902013,34.2219363 2.3902013,34.7260637 2.464,35.222 C2.78448226,36.144969 3.52956631,36.8573021 4.466,37.136 C5.88866667,37.6493333 7.33333333,38.104 8.8,38.5 Z M40.414,47.102 C40.2670752,46.775026 39.9727593,46.5379382 39.622,46.464 C38.818417,46.2450606 37.9907427,46.1268214 37.158,46.112 C33.154,45.76 29.172,45.254 25.234,44.506 C21.296,43.758 17.886,42.944 14.234,41.91 L10.736,40.832 C10.736,43.604 10.604,46.376 10.736,49.126 C10.8240191,50.7369665 11.0671438,52.3356953 11.462,53.9 C11.7101312,55.2880963 12.3963141,56.5602332 13.42,57.53 L13.684,57.706 L13.816,57.706 L14.3,58.3 C14.916,58.652 15.576,58.96 16.214,59.224 C17.5666212,59.7295742 18.9476442,60.1556345 20.35,60.5 C23.2182519,61.3838745 26.1653286,61.9880252 29.15,62.304 C30.3966852,62.4955496 31.6653148,62.4955496 32.912,62.304 C33.5942977,62.1251893 34.2168567,61.7683567 34.716,61.27 C35.3580509,60.6594281 35.9132347,59.9635977 36.366,59.202 C37.3126453,57.5226996 38.0725095,55.7447649 38.632,53.9 C38.962,52.932 39.292,51.942 39.6,50.974 C39.9279686,50.0919668 40.1926395,49.1876746 40.392,48.268 C40.479225,47.9072942 40.4867328,47.5319049 40.414,47.168 L40.414,47.102 Z" id="Shape" fill="#FFFFFF" fill-rule="nonzero"></path>
                        <g id="Iraqi" transform="translate(50.344043, 26.779689) rotate(-0.140000) translate(-50.344043, -26.779689) ">
                            <use fill="#000000" xlink:href="#path-2"></use>
                            <use fill="#E94D34" xlink:href="#path-2"></use>
                        </g>
                    </g>
                </g>
            </g>
        </g>
    </g>
</svg>