<?xml version="1.0" encoding="UTF-8"?>
<svg width="247px" height="238px" viewBox="0 0 247 238" version="1.1" xmlns="http://www.w3.org/2000/svg" xmlns:xlink="http://www.w3.org/1999/xlink">
    <!-- Generator: sketchtool 52.1 (67048) - http://www.bohemiancoding.com/sketch -->
    <title>1BE53408-7BB7-476B-BA23-226B469FADB8</title>
    <desc>Created with sketchtool.</desc>
    <g id="New-Home-Page" stroke="none" stroke-width="1" fill="none" fill-rule="evenodd">
        <g id="Client-List-Slider" transform="translate(-2378.000000, -749.000000)" fill="#FFFFFF" fill-rule="nonzero">
            <g id="Kenergy" transform="translate(2311.000000, 649.000000)">
                <g id="Group" transform="translate(67.000000, 100.000000)">
                    <path d="M117.379009,0 L215.314869,0 L215.314869,4.3163728 C204.273081,5.27556675 195.87172,8.15314861 190.110787,12.9491184 C184.349854,17.7450882 170.187561,34.7707809 147.623907,64.0261965 C147.623907,40.5259446 146.183673,25.4186398 143.303207,18.7042821 C142.976709,17.9432158 140.84107,13.5820236 136.822157,10.0715365 C134.701719,8.21935091 132.501458,7.19395466 128.900875,5.75516373 C126.500486,4.79596977 122.659864,4.3163728 117.379009,4.3163728 L117.379009,0 Z" id="Path"></path>
                    <path d="M98.6559767,127.332997 L141.862974,71.9395466 C185.069971,152.991436 209.793975,199.99194 216.034985,212.941058 C222.275996,225.890176 232.597668,232.364736 247,232.364736 L247,237.400504 C204.753158,238.359698 178.108844,237.160705 167.067055,233.803526 C158.750529,231.274944 150.316067,223.191582 148.344023,219.415617 C142.58309,208.384887 126.020408,177.69068 98.6559767,127.332997 Z" id="Path-2"></path>
                    <path d="M87.8542274,140.282116 L27.3644315,215.81864 C20.6433431,215.81864 17.04276,215.81864 16.5626822,215.81864 C16.1332453,215.81864 0,215.81864 0,215.81864 C0,215.81864 0.109665078,212.680285 0.109665078,212.680285 C7.26213733,211.013046 25.2861108,205.413357 27.3644315,192.124442 C29.973677,175.440759 29.5247813,77.3370918 29.5247813,71.9395466 C29.5247813,63.6860405 31.3544804,34.1482544 25.9241983,19.4236776 C22.563654,10.311335 13.9222546,5.03576826 0,3.59697733 L0,-2.27373675e-13 C35.5257532,-2.27373675e-13 55.6890185,0.479596977 60.4897959,1.43879093 C78.374459,5.01214147 84.8872648,23.4808219 85.6938776,25.8982368 C87.1341108,30.2146096 87.8542274,68.3425693 87.8542274,140.282116 Z" id="Path-3"></path>
                </g>
            </g>
        </g>
    </g>
</svg>