<?xml version="1.0" encoding="UTF-8"?>
<svg width="498px" height="576px" viewBox="0 0 498 576" version="1.1" xmlns="http://www.w3.org/2000/svg" xmlns:xlink="http://www.w3.org/1999/xlink">
    <!-- Generator: sketchtool 52.1 (67048) - http://www.bohemiancoding.com/sketch -->
    <title>6654E031-B043-43C3-8D6D-4523EB7744CD</title>
    <desc>Created with sketchtool.</desc>
    <defs>
        <filter x="-26.0%" y="-21.2%" width="152.0%" height="142.5%" filterUnits="objectBoundingBox" id="filter-1">
            <feGaussianBlur stdDeviation="30" in="SourceGraphic"></feGaussianBlur>
        </filter>
        <radialGradient cx="0%" cy="9.4564819%" fx="0%" fy="9.4564819%" r="173.448299%" gradientTransform="translate(0.000000,0.094565),scale(1.000000,0.834061),rotate(48.452490),translate(-0.000000,-0.094565)" id="radialGradient-2">
            <stop stop-color="#72C2F7" offset="0%"></stop>
            <stop stop-color="#6D8BFD" offset="100%"></stop>
        </radialGradient>
    </defs>
    <g id="New-Home-Page" stroke="none" stroke-width="1" fill="none" fill-rule="evenodd">
        <g id="Client-List-Slider" transform="translate(-181.000000, -313.000000)" fill-rule="nonzero">
            <g id="Iungo" transform="translate(223.000000, 371.000000)">
                <rect id="Rectangle" fill="#383838" filter="url(#filter-1)" x="34" y="18" width="346" height="424"></rect>
                <rect id="Rectangle" fill="url(#radialGradient-2)" x="0" y="0" width="382" height="458"></rect>
                <g id="Untitled-1" transform="translate(48.000000, 195.000000)" fill="#FFFFFF">
                    <path d="M192.309661,32.5597225 L192.31158,32.5858423 C192.44782,36.7127675 194.035697,40.6229952 196.841105,43.5725955 C199.709837,46.5870116 203.584064,48.3254281 207.661692,48.45119 C208.436921,48.4744075 209.203515,48.6214522 209.941326,48.8739434 L209.991217,48.8913566 L210.043986,48.8981284 C217.600552,49.8732669 224.546912,53.5774386 229.678967,59.42053 C235.216866,65.7270057 238.152758,73.9382905 237.936884,82.4455995 C237.743077,90.0899884 234.961654,97.3793417 230.104,103.118921 C225.234831,108.873012 218.621398,112.696174 211.311409,113.898651 C206.988164,114.60969 202.839537,111.501436 202.140103,107.02141 C201.439711,102.543319 204.431251,98.2558054 208.755456,97.544767 C212.379268,96.9478817 215.689343,95.1001491 218.107137,92.2414843 C220.535485,89.3731456 221.883501,85.7212134 221.980404,81.9077256 C222.086902,77.6956692 220.61224,73.636462 217.872074,70.515632 C215.135745,67.4006064 211.318125,65.4832211 207.266402,65.1910665 C206.71952,65.1523706 206.178395,65.0517611 205.650702,64.8979446 L205.60177,64.8834336 L205.55092,64.8785966 C197.956936,64.2410805 190.84939,60.7952044 185.496663,55.1688103 C179.72466,49.1003149 176.463517,41.0264007 176.350303,32.5200591 C176.345506,32.1969478 176.359897,31.8738364 176.390599,31.5662035 L176.393478,31.5362141 C176.946116,23.1778846 180.580482,15.3274397 186.534779,9.6691215 C192.625317,3.8821392 200.594442,0.825157573 208.867711,1.07377918 C217.050791,1.31949859 224.80692,4.83115786 230.558775,10.8774032 C241.835097,22.7328809 236.596544,35.4861052 245.033876,43.016341 C248.125198,45.7743962 252.126072,47.1887339 256.188349,46.9904171 C260.240072,46.7930676 264.028909,44.993705 266.813209,41.9522018 C269.488134,39.0296887 271.038592,35.0681888 271.066416,31.0292969 L271.067375,31.0002749 L271.064497,30.9702855 C270.658653,26.8733497 268.741688,23.1295146 265.740553,20.4256337 C262.642515,17.6337195 258.616697,16.2068056 254.530433,16.4060899 C253.958606,16.4341444 253.386778,16.5096016 252.820708,16.6024719 C252.241205,16.697277 251.658823,16.8046584 251.091793,16.9652466 C246.877924,18.1541803 242.460653,15.6176595 241.267107,11.2363083 C240.072602,6.85592449 242.573867,2.37686597 246.785817,1.18696489 C247.912202,0.868690539 249.050101,0.587177358 250.204309,0.397567106 C251.37195,0.206022054 252.552064,0.0938037417 253.732177,0.0367271861 C261.942122,-0.364743502 270.000476,2.53745424 276.219579,8.14063069 C282.399345,13.7089808 286.233275,21.4626857 286.960532,29.8974398 C286.971086,30.0115929 286.982599,30.1238112 286.986437,30.2379643 L286.996031,30.4488573 L286.999869,30.6384676 L286.999869,30.6849028 C287.022895,39.0345257 284.012167,47.1674512 278.468511,53.2214357 C272.840424,59.3702253 265.170645,62.9602439 256.986605,63.3597798 C248.832307,63.7583483 240.820007,60.9016183 234.617215,55.3661598 C219.105916,41.5265461 228.045037,31.7567811 219.213374,22.4726505 C216.344642,19.4582345 212.471375,17.7178832 208.392787,17.5950235 C204.300767,17.4721638 200.363217,19.006459 197.353447,21.8670586 C194.431946,24.6434945 192.63779,28.4347321 192.312539,32.5326353 L192.309661,32.5597225 Z M150.029951,21.9364751 L150.046949,21.9568036 C152.536285,24.9189615 153.921662,28.6400514 153.913163,32.4889206 L153.907497,32.4889206 L153.907497,55.9519216 C153.907497,60.3283647 157.401632,63.9090909 161.671088,63.9090909 C165.940544,63.9090909 169.433735,60.3283647 169.433735,55.9519216 L169.433735,32.4889206 C169.338354,24.7350367 166.474108,17.2492958 161.327341,11.3704772 C161.12147,11.1371831 160.904267,10.9145372 160.683286,10.714156 L160.663455,10.6947954 C154.885855,5.07443964 147.251641,1.85188289 139.382281,1.73087971 C131.333493,1.60697245 123.709667,4.67948525 118.001949,10.3201696 C112.354671,15.8989003 109.113624,23.5346851 108.928529,31.6622269 C108.922863,31.9410182 108.920974,32.2169054 108.921919,32.4889206 L108.921919,55.9519216 C108.921919,60.3283647 112.414165,63.9090909 116.683621,63.9090909 C120.954021,63.9090909 124.447213,60.3283647 124.447213,55.9519216 L124.447213,32.4763363 C124.538816,28.4232137 126.16595,24.6188736 128.980145,21.8387045 C131.805673,19.0478871 135.58595,17.5484157 139.564543,17.6084333 C143.426035,17.6684508 147.140206,19.1988991 150.011063,21.9180826 L150.029951,21.9364751 Z M30.3081412,62.1794933 C22.3096577,62.2788898 14.7371569,59.1878549 9.06178659,53.5320015 C3.42599877,47.9151272 0.191546624,40.2294423 0.00682849507,32.0477496 C0.00117385846,31.7661263 -0.000711020413,31.4893754 0.000231419022,31.2145734 L0.000231419022,28.7374578 C0.000231419022,24.331856 3.48631489,20.7272727 7.74708358,20.7272727 C12.0078523,20.7272727 15.4939357,24.3328305 15.4939357,28.7374578 L15.4939357,31.2145734 L15.4929933,31.2145734 L15.4939357,31.2282161 C15.5862948,35.3073687 17.2101179,39.1370558 20.0185875,41.9357482 C22.7723955,44.6808445 26.4375425,46.185434 30.3081412,46.1951787 C34.5764494,46.1951787 38.0361446,49.7734512 38.0361446,54.1868488 C38.0361446,58.6012209 34.5764494,62.1794933 30.3081412,62.1794933 Z M82.6031841,43.8824574 L82.6192382,43.8632717 C85.1095181,40.9269145 86.4948956,37.2394408 86.4863963,33.425342 L86.4807302,33.425342 L86.4807302,11.3407894 C86.4807302,7.00292354 89.9739213,3.45454545 94.2433771,3.45454545 C98.512833,3.45454545 102.006024,7.00388282 102.006024,11.3407894 L102.006024,33.425342 C101.910644,41.1091778 99.0463969,48.5272929 93.8996297,54.3530026 C93.6947034,54.5851484 93.476556,54.8048236 93.2565199,55.0033947 L93.235744,55.0235396 C87.4581437,60.5921621 79.8239298,63.7856065 71.9545701,63.9055165 C63.9067261,64.0283044 56.2829002,60.9835485 50.5742383,55.3938218 C44.9279042,49.865489 41.6868574,42.2986855 41.5008183,34.2445675 C41.4951522,33.9682947 41.4932634,33.6958591 41.4942078,33.425342 L41.4942078,11.3407894 C41.4942078,7.00292354 44.9873989,3.45454545 49.2568548,3.45454545 C53.5263106,3.45454545 57.0195017,7.00388282 57.0195017,11.3407894 L57.0195017,33.438772 C57.1120491,37.4543196 58.739183,41.2242915 61.5533786,43.9793447 C64.3779622,46.74495 68.1582391,48.2318346 72.1377761,48.1713999 C75.9983237,48.1128838 79.7124953,46.5953022 82.5842969,43.8997244 L82.6031841,43.8824574 Z M6.59386578,1.81930936 C10.8405041,1.16462735 14.8131052,4.07261107 15.4681668,8.31502765 C16.1232283,12.5574442 13.2129907,16.5260321 8.96635234,17.1807141 C4.71971402,17.8353961 0.747112902,14.9264482 0.092051343,10.6849958 C-0.563010216,6.44257924 2.34816594,2.47302719 6.59386578,1.81930936 Z" id="Fill-1"></path>
                </g>
            </g>
        </g>
    </g>
</svg>