<?xml version="1.0" encoding="UTF-8"?>
<svg width="315px" height="391px" viewBox="0 0 315 391" version="1.1" xmlns="http://www.w3.org/2000/svg" xmlns:xlink="http://www.w3.org/1999/xlink">
    <!-- Generator: sketchtool 52.1 (67048) - http://www.bohemiancoding.com/sketch -->
    <title>0F852D85-3DD9-4F7B-80F7-19F4630FE397</title>
    <desc>Created with sketchtool.</desc>
    <defs>
        <radialGradient cx="-8.11391901%" cy="233.537291%" fx="-8.11391901%" fy="233.537291%" r="263.251309%" gradientTransform="translate(-0.081139,2.335373),scale(1.000000,0.805627),rotate(-90.000000),translate(0.081139,-2.335373)" id="radialGradient-1">
            <stop stop-color="#1DB0F9" offset="0%"></stop>
            <stop stop-color="#0F1529" offset="100%"></stop>
        </radialGradient>
    </defs>
    <g id="New-Home-Page" stroke="none" stroke-width="1" fill="none" fill-rule="evenodd">
        <g id="Client-List-Slider" transform="translate(-2040.000000, -243.000000)">
            <g id="Looper" transform="translate(2040.000000, 243.000000)">
                <rect id="Rectangle" fill="url(#radialGradient-1)" fill-rule="nonzero" x="0" y="0" width="315" height="391"></rect>
                <g id="Looper-Logo-White" transform="translate(52.000000, 159.000000)" fill="#FFFFFF">
                    <g id="Group-3">
                        <text id="Looper" font-family="Baumans-Regular, Baumans" font-size="62.4" font-weight="normal">
                            <tspan x="0" y="59">Looper</tspan>
                        </text>
                        <g id="car-black-side-silhouette" transform="translate(207.350000, 55.900000) scale(-1, 1) translate(-207.350000, -55.900000) translate(196.300000, 50.700000)" fill-rule="nonzero">
                            <path d="M21.7671987,4.66751747 C21.7361846,4.29308691 21.7013768,3.86936287 21.6334253,3.50372519 C21.5862385,3.24799864 21.4824809,2.90747399 21.1316751,2.90747399 C21.0965346,2.90747399 21.0613276,2.91093786 21.0265864,2.91453495 C21.0048898,2.91659995 20.9831933,2.91953091 20.9476535,2.92019704 C20.9469214,2.92019704 20.9355406,2.90913931 20.9210984,2.86710663 C20.8180729,2.57181208 20.3859382,2.20450908 19.8318101,1.75527234 C19.6953079,1.64502815 19.531918,1.51226883 19.4623026,1.44379087 C19.4878593,1.26686727 19.4840657,1.0495763 19.3610075,0.899830723 C19.3038376,0.829953893 19.1962865,0.746488051 19.0108672,0.746488051 C18.9836466,0.746488051 18.9546957,0.748153371 18.8902715,0.753882072 C18.756498,0.753882072 18.4884188,0.698859897 18.1172474,0.622055335 C17.1602017,0.425480953 15.3788189,0.0591771494 12.7076765,0.00155707484 C8.81839726,-0.0755139382 5.76217371,2.73361458 5.6361871,2.85191892 L5.54607306,2.93571782 C5.3863436,3.01298867 4.88193128,3.19770598 3.34014267,3.50106068 C1.15331325,3.93204552 0.736153148,4.62934834 0.657353281,4.89899697 C0.482782292,5.02942483 0.200061148,5.34050662 0.155270346,5.70647736 C0.119264663,5.99830805 0.0377360849,6.1176782 0.0377360849,6.11734513 L0,6.16603909 L0,8.22597341 L0.00425945226,8.26354303 C0.122792022,8.81056737 0.689232619,9.1 1.64228506,9.1 C1.94623691,9.1 2.17425072,9.06895843 2.16539904,9.06895843 C2.17864328,9.06822569 2.29617754,9.06622731 2.4998326,9.0620307 C2.47900122,9.00441063 2.46003334,8.94612443 2.44366107,8.88643935 C2.42782123,8.82888589 2.41331248,8.77093275 2.40213141,8.71158075 C2.37524362,8.57182708 2.36013588,8.42801004 2.36013588,8.28039607 C2.36013588,7.01448636 3.38912637,5.9845192 4.65391747,5.9845192 C5.91870858,5.9845192 6.94776562,7.01448636 6.94776562,8.28039607 C6.94776562,8.39490348 6.93658456,8.50594702 6.92054506,8.61599137 C6.91175994,8.67567644 6.90157719,8.73496184 6.88813329,8.79291498 C6.87435663,8.85293311 6.85991442,8.91228512 6.84161209,8.97057132 C9.70596062,8.90915432 13.3507207,8.82808654 16.1735396,8.75707729 C16.161094,8.69912415 16.1531741,8.64043827 16.1452541,8.58108626 C16.1373342,8.522467 16.1328085,8.46384773 16.1297471,8.40456234 C16.1276839,8.36312917 16.1235575,8.32249536 16.1235575,8.28039607 C16.1235575,7.01448636 17.1526146,5.9845192 18.4173391,5.9845192 C19.6642272,5.9845192 20.6801732,6.98617592 20.7084586,8.2279718 C20.7084586,8.24522451 20.7111873,8.26274368 20.7111873,8.28039607 C20.7111873,8.32489342 20.707061,8.36832497 20.7042657,8.41248926 C20.7008049,8.47523852 20.6946154,8.53765472 20.6863627,8.59907172 C21.2253165,8.51007702 21.63063,8.22584019 21.8652992,7.76607862 C22.2667526,6.97998093 22.0620992,5.91557495 21.9180099,5.68955771 C21.8402084,5.5672566 21.8016071,5.08917652 21.7671987,4.66751747 Z" id="Shape"></path>
                            <path d="M2.76134657,9.22664335 C3.06170661,9.91703014 3.74881699,10.4 4.54966567,10.4 C5.37926654,10.4 6.08590166,9.88098961 6.36773994,9.15115214 C6.39007304,9.09297912 6.40999897,9.03340191 6.42698282,8.9724874 C6.44323115,8.91431437 6.45673799,8.85473717 6.46783767,8.79449131 C6.48756301,8.68269211 6.5,8.56768337 6.5,8.45006687 C6.5,7.37292974 5.62713713,6.5 4.55,6.5 C3.47286287,6.5 2.6,7.37292974 2.6,8.45006687 C2.6,8.59616809 2.61731818,8.73839111 2.6479426,8.87553235 C2.66091451,8.93510956 2.67649419,8.99361691 2.69535027,9.05072009 C2.71460755,9.11103282 2.73660632,9.16913898 2.76134657,9.22664335 Z" id="Shape"></path>
                            <path d="M16.9588417,8.91922094 C17.1693344,9.76886691 17.9352793,10.4 18.85,10.4 C19.8063111,10.4 20.6002726,9.71069488 20.7664335,8.8024757 C20.777132,8.74363502 20.7854233,8.68439316 20.7913075,8.62381401 C20.796523,8.56637749 20.8,8.50887411 20.8,8.45003343 C20.8,8.44862928 20.8,8.44722513 20.8,8.44548665 C20.7979272,7.37084198 19.9253986,6.5 18.85,6.5 C17.7731972,6.5 16.9,7.37291477 16.9,8.45003343 C16.9,8.48914911 16.9038113,8.52719495 16.9058842,8.56597631 C16.9093612,8.62588681 16.9152453,8.68466062 16.9242053,8.74289951 C16.9332322,8.80254256 16.9450005,8.86138324 16.9588417,8.91922094 Z" id="Shape"></path>
                        </g>
                    </g>
                </g>
            </g>
        </g>
    </g>
</svg>