<?xml version="1.0" encoding="UTF-8"?>
<svg width="253px" height="361px" viewBox="0 0 253 361" version="1.1" xmlns="http://www.w3.org/2000/svg" xmlns:xlink="http://www.w3.org/1999/xlink">
    <!-- Generator: sketchtool 52.1 (67048) - http://www.bohemiancoding.com/sketch -->
    <title>A8EA64E6-6036-472C-B47A-4E988C1D3F1C</title>
    <desc>Created with sketchtool.</desc>
    <g id="New-Home-Page" stroke="none" stroke-width="1" fill="none" fill-rule="evenodd">
        <g id="Client-List-Slider" transform="translate(-2039.000000, -649.000000)">
            <g id="NWG" transform="translate(2039.000000, 649.000000)">
                <g id="Group">
                    <rect id="Rectangle" fill="#D0C5C5" fill-rule="nonzero" x="0" y="0" width="253" height="361"></rect>
                    <g id="nwg" transform="translate(42.000000, 95.000000)" fill="#1E1C1C">
                        <path d="M60.6082107,68.2887137 C59.5449021,69.3047357 58.0650776,70.6711499 56.168715,72.3879766 C55.4478238,73.108133 54.4065521,74.0883312 53.0448686,75.3286006 C51.6831852,76.56887 50.7220113,77.4290439 50.1613181,77.9091482 C47.3578522,80.4697044 44.234037,82.2300603 40.7897788,83.1902689 C37.5057187,84.0704601 34.2217079,83.9104277 30.9376478,82.710167 C26.1317062,80.9497846 22.2870106,77.989186 19.4034457,73.8282822 C19.1631486,73.4281953 18.7826839,72.828074 18.2620402,72.0279002 C17.7413966,71.2277264 17.3609319,70.627605 17.1206348,70.2275181 L15.9191554,68.7872125 C15.1181652,68.7872125 14.3572358,69.2273015 13.6363446,70.1074927 C12.1144631,71.7078403 10.8729468,73.1481315 9.91175846,74.4284096 C9.51126333,74.9085139 8.89050518,75.7486838 8.0494654,76.9489445 C7.20842562,78.1492052 6.54761857,79.0693912 6.06702441,79.7095303 C5.34613317,80.5897214 4.505106,81.3498751 3.54391768,81.9900142 C2.18223423,82.8702054 1.02081577,82.6701649 0.0596274457,81.3898868 C-0.741362821,80.2696435 -1.26199868,79.2294332 -1.50229576,78.2692246 C-2.06298895,75.4686163 -2.42342916,73.0281228 -2.58362722,70.947671 C-2.8239243,67.586941 -2.70377756,63.5461239 -2.2231834,58.8250985 C-1.98288632,56.7446466 -1.38215263,54.9442826 -0.420964311,53.4239524 C0.940719141,51.3435005 2.54267564,50.6633629 4.38495326,51.3835194 C5.18594352,51.6235715 5.80670167,52.1636807 6.24724631,53.0038632 C6.68779096,53.8440457 6.82796215,54.7842358 6.6677641,55.8244618 C6.50756605,57.5048267 6.14712583,59.1451584 5.58643265,60.745506 C4.14465017,64.8263924 3.14342736,68.9072176 2.58273417,72.9881039 C2.50263514,73.5482256 2.42253732,75.068533 2.34243829,77.5490718 L2.58273417,78.869352 C3.46382346,78.3892477 4.42499736,77.4290535 5.46628471,75.9887407 C6.0269779,75.2685843 6.94810288,74.0683416 8.22968731,72.3879766 C9.51127174,70.7076116 10.5124946,69.4273527 11.2333858,68.5471616 C12.1945741,67.2668835 12.9955524,66.3466974 13.6363446,65.7865758 C15.4786222,64.2662455 17.3208722,64.2662455 19.1631498,65.7865758 C19.723843,66.26668 20.4046745,67.0268337 21.2056647,68.0670597 C21.2857638,68.1470771 22.2068888,69.467344 23.9690673,72.0279002 C25.7312459,74.508439 28.0140339,76.6688758 30.8174999,78.5092756 C34.9025502,81.3098839 39.2278328,81.5499324 43.7934773,79.2294284 C46.2765471,77.9491503 48.8396775,76.0687701 51.4829454,73.5882313 C52.0436386,73.0281096 55.4077473,69.7474463 61.5753723,63.7461428 C61.5899972,63.7461428 61.6052895,63.7434753 61.6212494,63.7381402 C61.7531893,63.2552358 61.8980941,62.7377934 62.0559641,62.1858117 C62.5365582,60.7454988 63.3375365,59.5452561 64.4589229,58.5850476 C65.2599131,57.9449085 66.1810381,57.6048398 67.2223255,57.5648311 C68.2636128,57.5248224 69.1446889,57.8648911 69.8655801,58.5850476 C70.7466694,59.305204 71.2472808,60.205386 71.3674294,61.2856206 C71.4875779,62.3658553 71.22726,63.3460535 70.5864678,64.2262446 C69.2247843,65.6665575 68.1234392,67.4269134 67.2823994,69.5073653 C66.4413596,71.5878172 65.8806749,73.3281691 65.6003283,74.7284733 C65.3199817,76.1287774 64.9795659,78.1491859 64.5790708,80.7897595 C64.2586747,82.5501418 64.0584301,85.5907567 63.9783311,89.9116952 C63.8982321,91.9121297 64.2186234,94.0325585 64.9395146,96.2730451 C65.0196136,96.3530625 65.3800539,97.1132162 66.0208461,98.553529 C67.1422324,97.5933205 67.7029172,97.0732153 67.7029172,96.9931979 C68.9845016,94.9927634 70.0658223,93.2324075 70.9469116,91.7120772 C71.7479018,90.3517818 73.0094426,88.0913247 74.7315717,84.9306382 C76.4537007,81.7699517 77.7953393,79.3894703 78.7565276,77.7891227 C79.3172208,76.7488968 80.3184436,75.2285894 81.7602261,73.2281549 C82.4010183,72.4279811 83.0418009,71.7478436 83.6825931,71.1877219 C84.6437814,70.3875481 85.5849309,70.0474793 86.5060697,70.1675054 C87.4272085,70.2875315 88.2081623,70.8676488 88.8489545,71.9078747 C89.3295487,72.6280311 89.7300378,73.468201 90.0504339,74.4284096 C90.1305329,74.9885312 90.2506797,75.5486445 90.4108777,76.1087662 C90.5710758,76.6688878 90.7312714,77.3090173 90.8914695,78.0291737 C91.0516675,78.7493301 91.1718143,79.3094434 91.2519133,79.7095303 C92.8538938,85.9508859 93.8150677,89.6316302 94.1354638,90.7518735 C94.3757609,91.6320647 94.9764946,93.112364 95.9376829,95.1928159 C96.4983761,96.473094 97.1792076,97.1932396 97.9801979,97.3532743 C98.7811882,97.273257 99.3819218,96.7531518 99.782417,95.7929432 C100.423209,94.1125782 100.823698,92.8323194 100.983896,91.9521282 C101.704788,87.711207 102.225423,84.0704709 102.54582,81.0298104 C103.426909,72.948055 103.627153,64.6663804 103.146559,56.1845382 C102.906262,52.8238082 102.706018,47.2226756 102.54582,39.3809724 C102.54582,38.4207638 102.585868,37.3805535 102.665968,36.2603102 C102.665968,35.7802059 102.786114,35.4601412 103.026411,35.3001064 C103.266708,34.9000195 103.5871,34.7399871 103.987595,34.8200045 C104.38809,34.9800393 104.608359,35.2400919 104.648409,35.6001701 C104.688458,35.9602483 104.708482,36.6203818 104.708482,37.5805903 L104.708482,39.5009978 C104.788582,40.7012585 104.948777,42.3415902 105.189074,44.4220421 C105.429371,46.502494 105.589567,47.9827933 105.669666,48.8629845 C106.550755,57.9849658 106.590804,67.6669236 105.789814,77.9091482 C105.389319,83.750417 104.748536,88.5513877 103.867447,92.3122046 C103.547051,93.5124653 103.186611,94.7927242 102.786115,96.1530196 C102.465719,96.8731761 102.105279,97.5533136 101.704784,98.1934526 C100.823695,99.5537481 99.7223496,100.333906 98.4007157,100.533949 C97.0790817,100.733993 95.7374432,100.313908 94.3757597,99.2736818 C93.0941753,98.3134733 91.852659,96.7931659 90.6511736,94.712714 C88.0079057,90.3117581 86.3258514,85.4307711 85.6049602,80.0696067 C85.5248611,79.509485 85.2845676,77.8691533 84.8840725,75.1485624 C84.3233793,74.9085103 83.8427924,75.0685426 83.4422972,75.6286643 C81.3597226,78.4292726 80.1582552,80.1096124 79.8378591,80.669734 C79.3572649,81.3898904 78.8967024,82.1700482 78.4561578,83.0102307 C78.0156131,83.8504132 77.615124,84.5905628 77.2546784,85.2307019 C76.8942328,85.8708409 76.4536947,86.6509987 75.933051,87.5711985 C75.4124074,88.4913984 74.9918938,89.2715562 74.6714977,89.9116952 C72.3486259,93.9125642 70.7867183,96.6331143 69.9857281,98.0734272 C69.5051339,98.9536183 68.8643513,99.7537801 68.063361,100.473937 C66.3812815,101.914249 64.8594228,101.794225 63.4977393,100.11386 C62.8569471,99.3136863 62.2562134,98.273476 61.6955203,96.9931979 C60.89453,95.3128329 60.2937963,92.9123475 59.8933012,89.7916697 C59.083911,83.0291252 59.3222114,75.861534 60.6082107,68.2887137 Z M178.719613,63.3860664 C178.799712,63.7061359 178.719614,64.0662087 178.479317,64.4662956 L177.638282,65.1864484 C173.393033,68.3871436 171.110245,70.1074915 170.789849,70.3475436 C170.149057,70.9076653 166.70485,74.0683044 160.457126,79.8295557 C160.697423,81.1098338 160.857619,81.7899713 160.937718,81.8699887 C163.26059,90.5918831 164.7424,97.0731937 165.383192,101.314115 C166.023984,105.314984 166.464522,108.95572 166.704819,112.236433 C167.42571,120.958327 167.465759,129.320018 166.824967,137.321756 C165.863779,150.044519 163.020306,161.406817 158.294463,171.408989 C154.690007,179.170675 150.084382,185.732002 144.47745,191.093166 C140.552598,194.934001 136.507658,197.894599 132.342508,199.975051 C127.776864,202.13552 123.371484,203.175731 119.126235,203.095713 C112.558115,202.935679 107.511952,200.095104 103.987595,194.573905 C101.90502,191.213175 100.583406,187.172358 100.022713,182.451332 C99.2217226,175.329786 100.102799,167.448192 102.665968,158.806315 C105.709731,148.244021 110.5156,137.641877 117.08372,126.999565 C123.091147,117.07741 131.10093,106.835339 141.113308,96.2730451 C142.795388,94.4326454 145.238371,91.8121155 148.442332,88.4113768 C151.646293,85.0106382 153.568641,82.9902296 154.209433,82.3500906 C154.209433,82.2700732 154.649971,81.749968 155.531061,80.7897595 C154.970368,79.0293771 154.690025,78.0291749 154.690025,77.7891227 C152.847748,71.8678366 151.686329,68.2271004 151.205735,66.866805 C150.80524,65.5865269 150.244555,64.4262923 149.523664,63.3860664 C148.722674,62.1858057 147.721451,61.9857652 146.519965,62.785939 C145.238381,63.5861128 143.876718,64.6263231 142.434935,65.9066012 C141.794143,66.4667229 140.372407,67.7669858 138.169684,69.807429 C135.96696,71.8478722 134.224833,73.3881836 132.943248,74.4284096 C131.261169,75.8687224 128.61794,77.8691269 125.013484,80.4296831 C123.411504,81.6299438 121.6894,82.4301056 119.847123,82.8301925 C118.966034,83.0702446 118.405349,83.1902689 118.165052,83.1902689 C115.361586,83.430321 113.759629,82.1900702 113.359134,79.4694793 C113.198936,78.5892881 113.238985,77.5490778 113.479282,76.3488171 C113.799678,73.7882609 114.680754,71.3877755 116.122537,69.1472889 C120.76828,61.7856899 126.335079,55.9445088 132.8231,51.6235703 C135.145972,50.0232227 137.42876,49.1030366 139.671533,48.8629845 C140.71282,48.7829671 141.754092,48.8629833 142.795379,49.1030354 C144.076964,49.423105 145.038138,50.2632748 145.67893,51.6235703 C146.47992,53.1439005 146.419847,54.5841918 145.498708,55.9444872 C144.577569,57.3047827 143.316028,57.8248879 141.714048,57.5048183 C138.910582,57.0247141 135.786767,57.7848678 132.342508,59.7853023 C127.29627,62.6659279 122.650596,67.1068259 118.405348,73.1081294 C117.844654,73.9083032 117.324019,74.9085055 116.843424,76.1087662 C116.603127,76.7489052 116.482981,77.5890751 116.482981,78.629301 C116.482981,78.7093184 116.603127,79.2294236 116.843424,80.1896321 C117.724514,80.5097017 118.96603,80.3896774 120.56801,79.8295557 C122.330189,79.1894167 124.372684,77.989174 126.695555,76.2287916 C132.302487,72.0678879 137.669042,67.2669171 142.795379,61.8257352 C143.836667,60.7054919 144.517498,60.0253544 144.837894,59.7853023 C145.959281,58.8250937 147.220821,58.3449966 148.622554,58.3449966 C150.024287,58.3449966 151.285828,58.8651018 152.407214,59.9053277 C153.288304,60.7055015 154.089282,61.7457119 154.810173,63.0259899 C155.210668,63.8261637 155.771353,65.2264469 156.492244,67.2268814 C156.81264,68.18709 157.253178,69.547365 157.813872,71.3077474 C158.374565,73.0681297 158.735005,74.2283643 158.895203,74.788486 C158.895203,74.8685034 159.135497,75.4686247 159.616091,76.588868 C160.016586,76.2687985 160.737466,75.6286691 161.778754,74.6684605 C162.419546,74.0283215 163.841282,72.7280586 166.044005,70.7676328 C168.246729,68.8072069 169.908759,67.2668955 171.030145,66.1466522 C172.712224,64.7063393 174.434328,63.7061371 176.196506,63.1460154 C176.837299,62.9059633 177.397983,62.785939 177.878577,62.785939 C178.279073,62.785939 178.559415,62.9859795 178.719613,63.3860664 Z M162.139197,111.156203 C161.418306,103.794604 159.736252,95.4329136 157.092984,86.0708802 C157.092984,85.9908628 156.85269,85.3107253 156.372096,84.0304472 C155.491007,84.7506036 155.050469,85.1106764 155.050469,85.1106764 C146.159477,93.7525534 138.229792,102.474317 131.261177,111.276229 C122.290086,122.478662 115.401673,133.480887 110.595732,144.283233 C106.190285,154.045353 103.547057,163.007166 102.665968,171.168938 C101.945076,177.090224 102.225419,182.371292 103.507003,187.0123 C104.307993,190.052961 105.54951,192.613479 107.231589,194.69393 C109.554461,197.734591 112.638227,199.614971 116.482981,200.335127 C119.606843,200.895249 123.091098,200.575184 126.935851,199.374924 C130.139812,198.334698 133.383774,196.61435 136.667834,194.213829 C141.95437,190.292977 146.439848,185.291966 150.124403,179.210645 C153.889058,173.129324 156.812628,166.367957 158.895203,158.92634 C160.81758,152.044846 162.059096,144.363292 162.619789,135.88145 C163.100383,128.119764 162.940188,119.878098 162.139197,111.156203 Z"></path>
                    </g>
                </g>
                <text id="nextwave-girls" font-family="DomaineDispNar-Regular, Domaine Display Narrow" font-size="17" font-style="condensed" font-weight="normal" fill="#1E1C1C">
                    <tspan x="43" y="219">nextwave girls</tspan>
                </text>
            </g>
        </g>
    </g>
</svg>