<?xml version="1.0" encoding="UTF-8"?>
<svg width="494px" height="542px" viewBox="0 0 494 542" version="1.1" xmlns="http://www.w3.org/2000/svg" xmlns:xlink="http://www.w3.org/1999/xlink">
    <!-- Generator: sketchtool 52.1 (67048) - http://www.bohemiancoding.com/sketch -->
    <title>FBB22680-7A8A-48EC-8BA0-6D61866A80C6</title>
    <desc>Created with sketchtool.</desc>
    <defs>
        <filter x="-78.1%" y="-68.0%" width="256.2%" height="235.9%" filterUnits="objectBoundingBox" id="filter-1">
            <feOffset dx="0" dy="44" in="SourceAlpha" result="shadowOffsetOuter1"></feOffset>
            <feGaussianBlur stdDeviation="43.5" in="shadowOffsetOuter1" result="shadowBlurOuter1"></feGaussianBlur>
            <feColorMatrix values="0 0 0 0 0   0 0 0 0 0   0 0 0 0 0  0 0 0 0.5 0" type="matrix" in="shadowBlurOuter1" result="shadowMatrixOuter1"></feColorMatrix>
            <feMerge>
                <feMergeNode in="shadowMatrixOuter1"></feMergeNode>
                <feMergeNode in="SourceGraphic"></feMergeNode>
            </feMerge>
        </filter>
    </defs>
    <g id="New-Home-Page" stroke="none" stroke-width="1" fill="none" fill-rule="evenodd">
        <g id="Client-List-Slider" transform="translate(-872.000000, -201.000000)">
            <g id="Quantum" filter="url(#filter-1)" transform="translate(958.000000, 243.000000)">
                <rect id="Rectangle" fill="#FFFFFF" fill-rule="nonzero" x="0" y="0" width="322" height="370"></rect>
                <g id="big-logo" transform="translate(74.000000, 71.000000)">
                    <g id="Layer_1">
                        <path d="M167.553886,171.013545 L141.300622,144.71905 C125.776932,159.513609 105.164809,167.758474 83.7363731,167.744792 C37.5632642,167.744792 0,130.122535 0,83.8769109 C0,37.6312871 37.5632642,0.00902970297 83.7363731,0.00902970297 C129.909482,0.00902970297 167.472746,37.6312871 167.472746,83.8769109 C167.486407,105.339 159.25447,125.983495 144.483109,141.531564 L170.736373,167.826059 L167.553886,171.013545 Z M83.7363731,4.51936634 C40.0515544,4.51936634 4.51227979,40.1144554 4.51227979,83.8678812 C4.51227979,127.621307 40.0515544,163.216396 83.7363731,163.216396 C127.421192,163.216396 162.960466,127.621307 162.960466,83.8678812 C162.960466,40.1144554 127.421192,4.51936634 83.7363731,4.51936634 Z" id="Shape" fill="#231F20" fill-rule="nonzero"></path>
                        <polygon id="Rectangle" fill="#231F20" transform="translate(83.388743, 83.521413) rotate(-45.000000) translate(-83.388743, -83.521413) " points="81.1831438 16.8527635 85.6989669 16.8492202 85.594343 150.190062 81.0785199 150.193605"></polygon>
                        <path d="" id="Path"></path>
                        <path d="M138.100104,147.608554 C138.100104,147.608554 141.521503,144.935762 144.731036,148.154851 C147.94057,151.373941 147.886477,148.389624 147.886477,148.389624 L142.562798,143.206574 L139.776995,142.755089 L138.100104,147.608554 Z" id="Path" fill="#231F20"></path>
                        <path d="M22.9625907,205.294812 C23.2866459,205.629342 23.2866459,206.161232 22.9625907,206.495762 C22.8023675,206.662479 22.5805589,206.755589 22.3495337,206.753109 C22.1228765,206.753463 21.9060589,206.660396 21.75,206.495762 L19.4059585,204.14804 C15.7882121,207.369791 10.4147413,207.621841 6.5121952,204.752839 C2.60964912,201.883837 1.23908688,196.673833 3.22350047,192.251319 C5.20791406,187.828804 10.0077634,185.396211 14.7408462,186.414258 C19.473929,187.432304 22.8533725,191.624194 22.8498964,196.472792 C22.8721697,198.817969 22.074847,201.097102 20.5960104,202.915485 L22.9625907,205.294812 Z M12.594715,205.037465 C14.6589825,205.060205 16.6572918,204.309863 18.1978756,202.933545 L16.0521762,200.784475 C15.8122602,200.539395 15.7412961,200.174674 15.8717748,199.8573 C16.0022535,199.539925 16.3090548,199.330999 16.6517098,199.326178 C16.8827351,199.323698 17.1045437,199.416808 17.2647668,199.583525 L19.3653886,201.687446 C21.7937119,198.523664 21.7230479,194.100578 19.1949035,191.016231 C16.6667591,187.931884 12.3489413,187.001003 8.77766032,188.770371 C5.20637936,190.539739 3.32498589,194.54198 4.23857735,198.426247 C5.15216881,202.310513 8.61942084,205.050782 12.6037306,205.037465 L12.594715,205.037465 Z" id="Shape" fill="#231F20" fill-rule="nonzero"></path>
                        <path d="M45.6096373,186.264713 C45.8338115,186.26336 46.0493884,186.351025 46.209171,186.508515 C46.3694745,186.666516 46.4575505,186.883784 46.4525907,187.10899 L46.4525907,199.723485 C46.4525905,203.605839 43.3102558,206.753109 39.4339896,206.753109 C35.5577234,206.753109 32.4153888,203.605839 32.4153886,199.723485 L32.4153886,187.10899 C32.4116945,186.88396 32.4993187,186.667058 32.658211,186.507917 C32.8171032,186.348775 33.0336647,186.261013 33.258342,186.264713 C33.4789314,186.261341 33.6910692,186.349598 33.8443523,186.508515 C34.0046559,186.666516 34.0927319,186.883784 34.087772,187.10899 L34.087772,199.723485 C34.087772,202.680757 36.4813552,205.078099 39.4339896,205.078099 C42.3866241,205.078099 44.7802073,202.680757 44.7802073,199.723485 L44.7802073,187.10899 C44.775783,186.883883 44.8637762,186.666819 45.0236269,186.508515 C45.1769101,186.349598 45.3890479,186.261341 45.6096373,186.264713 Z" id="Path" fill="#231F20"></path>
                        <path d="M55.9053886,206.685386 C55.6974494,206.606583 55.5332909,206.442167 55.4546114,206.233901 C55.359328,206.024541 55.359328,205.784093 55.4546114,205.574733 L57.4425389,200.77996 L63.2305181,186.783921 C63.2305181,186.738772 63.2755959,186.684594 63.3026425,186.625901 L63.3612435,186.567208 L63.4198446,186.49497 L63.4919689,186.436277 L63.5505699,186.395644 C63.64037,186.330224 63.7435079,186.285512 63.8525907,186.264713 L63.924715,186.264713 L64.023886,186.264713 L64.1095337,186.264713 L64.181658,186.264713 C64.2954659,186.283566 64.4034257,186.328362 64.4972021,186.395644 L64.5558031,186.436277 C64.5918653,186.472396 64.6189119,186.49497 64.6279275,186.49497 L64.6865285,186.567208 C64.7225907,186.616871 64.7451295,186.634931 64.7451295,186.625901 C64.7451295,186.616871 64.7992228,186.734257 64.8172539,186.783921 L70.6052332,200.77996 L72.5931606,205.579248 C72.689043,205.788477 72.689043,206.029186 72.5931606,206.238416 C72.5144811,206.446682 72.3503227,206.611098 72.1423834,206.689901 C71.9354391,206.782315 71.6998589,206.786411 71.4898364,206.701248 C71.2798138,206.616085 71.1134312,206.448995 71.0289637,206.238416 L69.2574093,201.971881 L58.7948705,201.971881 L57.0233161,206.238416 C56.9090416,206.570218 56.588877,206.785839 56.2389637,206.766653 L56.0676684,206.766653 L55.9053886,206.685386 Z M68.5271503,200.242693 L64.0193782,189.330297 L59.5116062,200.242693 L68.5271503,200.242693 Z" id="Shape" fill="#231F20" fill-rule="nonzero"></path>
                        <path d="M96.155285,206.441584 L83.0827461,189.560554 L83.0827461,205.913347 C83.0827461,206.388355 82.6982793,206.773426 82.2240155,206.773426 C81.7497517,206.773426 81.365285,206.388355 81.365285,205.913347 L81.365285,187.027723 C81.3613425,186.660402 81.592553,186.331778 81.9392511,186.211933 C82.2859492,186.092088 82.6703166,186.207923 82.8934197,186.499485 L95.9659585,203.380515 L95.9659585,187.027723 C95.9659002,186.5592 96.3411825,186.177299 96.8089119,186.169901 C97.0398324,186.167956 97.2614384,186.260981 97.4219689,186.427248 C97.5822725,186.585248 97.6703484,186.802517 97.6653886,187.027723 L97.6653886,205.940436 C97.6697891,205.96886 97.6697891,205.997794 97.6653886,206.026218 C97.6689701,206.050163 97.6689701,206.07451 97.6653886,206.098455 C97.6592468,206.12788 97.6501863,206.156617 97.638342,206.184238 L97.6112953,206.256475 C97.604232,206.283661 97.5902542,206.30855 97.5707254,206.328713 L97.5301554,206.40095 C97.5129887,206.426863 97.493364,206.451054 97.4715544,206.473188 L97.4129534,206.531881 C97.3633679,206.568 97.3498446,206.581545 97.3723834,206.55897 C97.3949223,206.536396 97.3723834,206.55897 97.3453368,206.586059 L97.3047668,206.613149 C97.2780065,206.630191 97.2492373,206.64384 97.2191192,206.653782 L97.1605181,206.680871 L97.0613472,206.70796 L97.0027461,206.70796 L96.8449741,206.70796 C96.7879677,206.712552 96.7306852,206.712552 96.6736788,206.70796 L96.6150777,206.70796 L96.5023834,206.667327 L96.4437824,206.622178 L96.3446114,206.563485 L96.2860104,206.518337 L96.2454404,206.473188 L96.155285,206.441584 Z" id="Path" fill="#231F20"></path>
                        <path d="M112.676269,187.930693 L107.028031,187.930693 C106.799559,187.933663 106.579183,187.846024 106.414974,187.686891 C106.093262,187.351413 106.093262,186.821419 106.414974,186.485941 C106.575197,186.319224 106.797006,186.226114 107.028031,186.228594 L120.023938,186.228594 C120.372942,186.222589 120.689922,186.431522 120.822473,186.754937 C120.955025,187.078352 120.876031,187.450085 120.623472,187.691406 C120.465718,187.851961 120.24879,187.940176 120.023938,187.935208 L114.380207,187.935208 L114.380207,205.904317 C114.386485,206.133695 114.298267,206.355558 114.136266,206.517814 C113.974264,206.68007 113.752749,206.768427 113.523731,206.762139 C113.299556,206.763492 113.083979,206.675827 112.924197,206.518337 C112.765314,206.35387 112.677812,206.133148 112.680777,205.904317 L112.676269,187.930693 Z" id="Path" fill="#231F20"></path>
                        <path d="M142.075959,186.264713 C142.300133,186.26336 142.51571,186.351025 142.675492,186.508515 C142.835796,186.666516 142.923872,186.883784 142.918912,187.10899 L142.918912,199.723485 C142.918912,203.605839 139.776577,206.753109 135.900311,206.753109 C132.024045,206.753109 128.88171,203.605839 128.88171,199.723485 L128.88171,187.10899 C128.878016,186.88396 128.96564,186.667058 129.124532,186.507917 C129.283424,186.348775 129.499986,186.261013 129.724663,186.264713 C129.945253,186.261341 130.15739,186.349598 130.310674,186.508515 C130.470977,186.666516 130.559053,186.883784 130.554093,187.10899 L130.554093,199.723485 C130.554094,202.680757 132.947677,205.078099 135.900311,205.078099 C138.852945,205.078099 141.246528,202.680757 141.246528,199.723485 L141.246528,187.10899 C141.241569,186.883784 141.329645,186.666516 141.489948,186.508515 C141.643231,186.349598 141.855369,186.261341 142.075959,186.264713 Z" id="Path" fill="#231F20"></path>
                        <path d="M154.765337,205.895287 C154.768302,206.124118 154.6808,206.34484 154.521917,206.509307 C154.362135,206.666797 154.146558,206.754462 153.922383,206.753109 C153.693365,206.759397 153.47185,206.67104 153.309848,206.508784 C153.147847,206.346528 153.059629,206.124665 153.065907,205.895287 L153.065907,187.122535 C153.036502,186.72853 153.308846,186.375874 153.696995,186.305347 C154.067663,186.177353 154.47576,186.343161 154.652642,186.693624 L163.172332,200.79802 L171.692021,186.693624 C171.868903,186.343161 172.277,186.177353 172.647668,186.305347 C173.035817,186.375874 173.308162,186.72853 173.278756,187.122535 L173.278756,205.895287 C173.281233,206.126675 173.188269,206.348832 173.021813,206.509307 C172.86406,206.669862 172.647132,206.758077 172.42228,206.753109 C172.198106,206.754462 171.982529,206.666797 171.822746,206.509307 C171.663441,206.345113 171.575866,206.12421 171.579326,205.895287 L171.579326,190.188119 L163.916114,202.888396 C163.894148,202.910389 163.87451,202.934597 163.857513,202.960634 L163.798912,203.019327 L163.740311,203.07802 L163.668187,203.136713 C163.618601,203.163802 163.609585,203.168317 163.64114,203.136713 C163.672694,203.105109 163.64114,203.136713 163.596062,203.136713 C163.569422,203.153972 163.540624,203.167635 163.510415,203.177347 L163.43829,203.204436 C163.409928,203.20907 163.381004,203.20907 163.352642,203.204436 C163.328924,203.210013 163.304237,203.210013 163.280518,203.204436 C163.252156,203.20907 163.223232,203.20907 163.19487,203.204436 C163.166515,203.209151 163.137578,203.209151 163.109223,203.204436 C163.085504,203.210013 163.060817,203.210013 163.037098,203.204436 C163.008737,203.20907 162.979813,203.20907 162.951451,203.204436 L162.879326,203.177347 C162.849208,203.167404 162.820439,203.153755 162.793679,203.136713 L162.766632,203.136713 C162.766632,203.136713 162.766632,203.136713 162.766632,203.136713 C162.766632,203.136713 162.766632,203.136713 162.739585,203.136713 L162.667461,203.07802 L162.60886,203.019327 L162.550259,202.960634 C162.533005,202.934786 162.513387,202.910602 162.491658,202.888396 L154.828446,190.188119 L154.765337,205.895287 Z" id="Path" fill="#231F20"></path>
                        <path d="M4.10658031,227.661386 C3.98143437,227.664588 3.86059509,227.615522 3.77300518,227.525941 C3.67788417,227.437669 3.62532487,227.312645 3.62875648,227.182812 L3.62875648,216.663208 C3.62532487,216.533375 3.67788417,216.408351 3.77300518,216.320079 C3.85902902,216.227172 3.98007331,216.174747 4.10658031,216.175604 L6.76165803,216.175604 C9.85224538,216.262593 12.3125671,218.797 12.3125671,221.893663 C12.3125671,224.990327 9.85224538,227.524734 6.76165803,227.611723 L4.11559585,227.643327 L4.10658031,227.661386 Z M4.58440415,226.695208 L6.75264249,226.663604 C8.48253706,226.717016 10.1043448,225.823176 10.9850541,224.33096 C11.8657634,222.838745 11.8657634,220.984701 10.9850541,219.492485 C10.1043448,218.000269 8.48253706,217.106429 6.75264249,217.159842 L4.58891192,217.159842 L4.58440415,226.695208 Z" id="Shape" fill="#231F20" fill-rule="nonzero"></path>
                        <path d="M17.6298964,227.602693 C17.5128908,227.557839 17.4198004,227.466239 17.3729534,227.349861 C17.3214546,227.233417 17.3214546,227.100603 17.3729534,226.984158 L18.4818653,224.306851 L21.7184456,216.496158 L21.7590155,216.405861 L21.7905699,216.374257 L21.8221244,216.333624 L21.8626943,216.30202 L21.8942487,216.279446 C21.9439747,216.243569 22.0008789,216.218924 22.0610363,216.207208 L22.1016062,216.207208 L22.1556995,216.207208 L22.205285,216.207208 L22.2458549,216.207208 C22.3091605,216.217646 22.3692729,216.242347 22.421658,216.279446 L22.4532124,216.30202 L22.4937824,216.333624 L22.5253368,216.374257 C22.5253368,216.401347 22.5568912,216.410376 22.5568912,216.405861 L22.5974611,216.496158 L25.8250259,224.297822 L26.9339378,226.975129 C26.9854366,227.091574 26.9854366,227.224387 26.9339378,227.340832 C26.8551798,227.519616 26.6782668,227.63479 26.4831606,227.634297 C26.2847268,227.646747 26.1015824,227.527516 26.0323834,227.340832 L25.0587047,224.952475 L19.239171,224.952475 L18.2519689,227.331802 C18.1827699,227.518487 17.9996255,227.637718 17.8011917,227.625267 L17.7065285,227.625267 L17.6298964,227.602693 Z M24.6710363,223.990812 L22.1692228,217.922851 L19.6493782,224.008871 L24.6710363,223.990812 Z" id="Shape" fill="#231F20" fill-rule="nonzero"></path>
                        <path d="M40.078601,227.476277 L32.7669948,218.044752 L32.7669948,227.164752 C32.7669948,227.429062 32.5530658,227.643327 32.289171,227.643327 C32.0252762,227.643327 31.8113472,227.429062 31.8113472,227.164752 L31.8113472,216.645149 C31.807383,216.439425 31.9363725,216.25463 32.1306434,216.187712 C32.3249144,216.120795 32.5401037,216.187036 32.6633161,216.351683 L39.9659067,225.769663 L39.9659067,216.645149 C39.9631938,216.390157 40.1623662,216.178703 40.4166839,216.166574 C40.546313,216.163137 40.6711414,216.215779 40.7592746,216.31105 C40.8487158,216.398777 40.8977047,216.519806 40.8945078,216.645149 L40.8945078,227.209901 C40.8975639,227.226314 40.8975639,227.243151 40.8945078,227.259564 C40.896962,227.272997 40.896962,227.286765 40.8945078,227.300198 C40.8964486,227.316695 40.8964486,227.333364 40.8945078,227.349861 L40.8945078,227.390495 C40.8897742,227.405409 40.882111,227.419224 40.8719689,227.431129 L40.8494301,227.471762 L40.8178756,227.512396 L40.7863212,227.544 L40.7637824,227.544 C40.7637824,227.544 40.7637824,227.544 40.7637824,227.544 L40.7412435,227.544 L40.691658,227.566574 L40.6601036,227.566574 L40.6015026,227.566574 L40.5699482,227.566574 L40.4797927,227.566574 L40.3851295,227.566574 L40.3535751,227.566574 L40.2904663,227.544 L40.2589119,227.521426 L40.2048187,227.489822 L40.1732642,227.467248 L40.1507254,227.444673 L40.078601,227.476277 Z" id="Path" fill="#231F20"></path>
                        <path d="M51.6004663,227.661386 C48.4362183,227.661386 45.8710886,225.092227 45.8710886,221.92301 C45.8710886,218.753792 48.4362183,216.184634 51.6004663,216.184634 C52.8659301,216.170884 54.0982475,216.589734 55.0939896,217.37204 C55.1985083,217.447523 55.2657778,217.564197 55.2788083,217.692594 C55.2981002,217.81809 55.2637381,217.945921 55.1841451,218.044752 C55.1087803,218.149435 54.9922892,218.21681 54.8640933,218.229861 C54.7385649,218.254236 54.6088286,218.219253 54.512487,218.13505 C53.6803171,217.48762 52.6541544,217.140785 51.6004663,217.150812 C49.4743793,217.15678 47.6095117,218.572845 47.0297048,220.621566 C46.449898,222.670287 47.2954733,224.855844 49.1021969,225.978333 C50.9089205,227.100821 53.2395395,226.888582 54.8145078,225.458139 C54.9409298,225.342003 55.1196093,225.30224 55.2832394,225.353828 C55.4468695,225.405417 55.570591,225.540519 55.607799,225.708244 C55.6450071,225.875969 55.590049,226.050834 55.4636269,226.16697 C54.4172059,227.146557 53.0326502,227.682156 51.6004663,227.661386 Z" id="Path" fill="#231F20"></path>
                        <path d="M61.0758031,227.661386 C60.8149003,227.654288 60.6050665,227.444124 60.5979793,227.182812 L60.5979793,216.654178 C60.5971232,216.527473 60.6494667,216.406238 60.742228,216.320079 C60.8261085,216.224182 60.948589,216.171135 61.0758031,216.175604 L67.3866839,216.175604 C67.5131909,216.174747 67.6342352,216.227172 67.7202591,216.320079 C67.8130203,216.406238 67.8653638,216.527473 67.8645078,216.654178 C67.8679394,216.784011 67.8153801,216.909035 67.7202591,216.997307 C67.6326692,217.086889 67.5118299,217.135954 67.3866839,217.132752 L61.5265803,217.132752 L61.5265803,221.430891 L65.9036269,221.430891 C66.1675218,221.430891 66.3814508,221.645156 66.3814508,221.909465 C66.3814508,222.173775 66.1675218,222.38804 65.9036269,222.38804 L61.5265803,222.38804 L61.5265803,226.686178 L67.3866839,226.686178 C67.6505788,226.686178 67.8645078,226.900443 67.8645078,227.164752 C67.8645078,227.429062 67.6505788,227.643327 67.3866839,227.643327 L61.0758031,227.661386 Z" id="Path" fill="#231F20"></path>
                        <path d="M79.7920725,227.602693 C79.6767735,227.556801 79.5854572,227.465342 79.5396373,227.349861 C79.4881385,227.233417 79.4881385,227.100603 79.5396373,226.984158 L80.6485492,224.306851 L83.876114,216.505188 L83.9166839,216.414891 L83.9482383,216.383287 L83.9797927,216.342653 L84.0203627,216.31105 L84.0519171,216.288475 C84.1015712,216.252472 84.1585043,216.227814 84.2187047,216.216238 L84.2592746,216.216238 L84.3133679,216.216238 L84.3584456,216.216238 L84.3990155,216.216238 C84.4623211,216.226676 84.5224335,216.251376 84.5748187,216.288475 L84.6063731,216.31105 C84.6063731,216.31105 84.6424352,216.342653 84.646943,216.342653 L84.6784974,216.383287 C84.6784974,216.410376 84.7100518,216.419406 84.7100518,216.414891 L84.7506218,216.505188 L87.9826943,224.297822 L89.0916062,226.975129 C89.143105,227.091574 89.143105,227.224387 89.0916062,227.340832 C89.011931,227.518833 88.8355922,227.633633 88.640829,227.634297 C88.4423952,227.646747 88.2592508,227.527516 88.1900518,227.340832 L87.2253886,224.952475 L81.4058549,224.952475 L80.4186528,227.331802 C80.3494538,227.518487 80.1663095,227.637718 79.9678756,227.625267 L79.8687047,227.625267 L79.7920725,227.602693 Z M86.8332124,223.990812 L84.3133679,217.904792 L81.7935233,223.990812 L86.8332124,223.990812 Z" id="Shape" fill="#231F20" fill-rule="nonzero"></path>
                        <path d="M98.8734715,227.661386 C95.7092235,227.661386 93.1440937,225.092227 93.1440937,221.92301 C93.1440937,218.753792 95.7092235,216.184634 98.8734715,216.184634 C100.138935,216.170884 101.371253,216.589734 102.366995,217.37204 C102.471513,217.447523 102.538783,217.564197 102.551813,217.692594 C102.571105,217.81809 102.536743,217.945921 102.45715,218.044752 C102.381785,218.149435 102.265294,218.21681 102.137098,218.229861 C102.01157,218.254236 101.881834,218.219253 101.785492,218.13505 C100.953492,217.487303 99.9272161,217.14043 98.8734715,217.150812 C96.2419921,217.150812 94.1087565,219.287398 94.1087565,221.92301 C94.1087565,224.558622 96.2419921,226.695208 98.8734715,226.695208 C100.063772,226.712065 101.214812,226.269035 102.087513,225.458139 C102.213935,225.342809 102.392185,225.303791 102.555118,225.355783 C102.71805,225.407775 102.840913,225.542878 102.877423,225.710199 C102.913934,225.877521 102.858546,226.051641 102.732124,226.16697 C101.686833,227.145468 100.304104,227.680984 98.8734715,227.661386 Z" id="Path" fill="#231F20"></path>
                        <path d="M107.51487,227.602693 C107.397865,227.557839 107.304775,227.466239 107.257927,227.349861 C107.206429,227.233417 107.206429,227.100603 107.257927,226.984158 L108.366839,224.306851 L111.594404,216.505188 L111.634974,216.414891 L111.666528,216.383287 L111.698083,216.342653 L111.738653,216.31105 L111.770207,216.288475 C111.819861,216.252472 111.876795,216.227814 111.936995,216.216238 L111.977565,216.216238 L112.031658,216.216238 L112.081244,216.216238 L112.121813,216.216238 C112.184874,216.227532 112.244806,216.252158 112.297617,216.288475 L112.329171,216.31105 L112.369741,216.342653 L112.401295,216.383287 C112.401295,216.410376 112.43285,216.419406 112.43285,216.414891 L112.47342,216.505188 L115.700984,224.306851 L116.809896,226.984158 C116.861395,227.100603 116.861395,227.233417 116.809896,227.349861 C116.731138,227.528646 116.554225,227.64382 116.359119,227.643327 C116.160685,227.655777 115.977541,227.536546 115.908342,227.349861 L114.943679,224.952475 L109.124145,224.952475 L108.136943,227.331802 C108.067744,227.518487 107.8846,227.637718 107.686166,227.625267 L107.591503,227.625267 L107.51487,227.602693 Z M114.55601,223.990812 L112.036166,217.904792 L109.516321,223.990812 L114.55601,223.990812 Z" id="Shape" fill="#231F20" fill-rule="nonzero"></path>
                        <path d="M122.16513,227.661386 C122.039984,227.664588 121.919144,227.615522 121.831554,227.525941 C121.736433,227.437669 121.683874,227.312645 121.687306,227.182812 L121.687306,216.663208 C121.683874,216.533375 121.736433,216.408351 121.831554,216.320079 C121.917578,216.227172 122.038623,216.174747 122.16513,216.175604 L124.820207,216.175604 C127.910795,216.262593 130.371116,218.797 130.371116,221.893663 C130.371116,224.990327 127.910795,227.524734 124.820207,227.611723 L122.174145,227.643327 L122.16513,227.661386 Z M122.642953,226.695208 L124.811192,226.663604 C126.541086,226.717016 128.162894,225.823176 129.043603,224.33096 C129.924313,222.838745 129.924313,220.984701 129.043603,219.492485 C128.162894,218.000269 126.541086,217.106429 124.811192,217.159842 L122.647461,217.159842 L122.642953,226.695208 Z" id="Shape" fill="#231F20" fill-rule="nonzero"></path>
                        <path d="M136.522383,227.661386 C136.261481,227.654288 136.051647,227.444124 136.04456,227.182812 L136.04456,216.654178 C136.043704,216.527473 136.096047,216.406238 136.188808,216.320079 C136.272689,216.224182 136.395169,216.171135 136.522383,216.175604 L142.833264,216.175604 C142.959771,216.174747 143.080816,216.227172 143.166839,216.320079 C143.259601,216.406238 143.311944,216.527473 143.311088,216.654178 C143.31452,216.784011 143.26196,216.909035 143.166839,216.997307 C143.079249,217.086889 142.95841,217.135954 142.833264,217.132752 L136.973161,217.132752 L136.973161,221.430891 L141.350207,221.430891 C141.614102,221.430891 141.828031,221.645156 141.828031,221.909465 C141.828031,222.173775 141.614102,222.38804 141.350207,222.38804 L136.973161,222.38804 L136.973161,226.686178 L142.833264,226.686178 C143.097159,226.686178 143.311088,226.900443 143.311088,227.164752 C143.311088,227.429062 143.097159,227.643327 142.833264,227.643327 L136.522383,227.661386 Z" id="Path" fill="#231F20"></path>
                        <path d="M149.247824,227.164752 C149.249839,227.292542 149.201211,227.415925 149.112591,227.507881 C149.023547,227.595266 148.903678,227.643938 148.779016,227.643327 C148.650001,227.651343 148.523759,227.603502 148.432356,227.511956 C148.340954,227.42041 148.293188,227.293969 148.301192,227.164752 L148.301192,216.694812 C148.29594,216.479607 148.443118,216.290622 148.652798,216.243327 C148.859049,216.178475 149.082228,216.269403 149.184715,216.46004 L153.935907,224.329426 L158.687098,216.46004 C158.789585,216.269403 159.012765,216.178475 159.219016,216.243327 C159.428696,216.290622 159.575873,216.479607 159.570622,216.694812 L159.570622,227.164752 C159.574053,227.294585 159.521494,227.41961 159.426373,227.507881 C159.338783,227.597463 159.217944,227.646529 159.092798,227.643327 C158.967652,227.646529 158.846813,227.597463 158.759223,227.507881 C158.670602,227.415925 158.621975,227.292542 158.62399,227.164752 L158.62399,218.405941 L154.341606,225.489743 L154.310052,225.530376 L154.278497,225.56198 L154.246943,225.593584 L154.206373,225.625188 L154.183834,225.625188 L154.134249,225.647762 L154.093679,225.647762 L154.044093,225.647762 L154.003523,225.647762 L153.953938,225.647762 L153.904352,225.647762 L153.863782,225.647762 L153.818705,225.647762 L153.778135,225.647762 L153.728549,225.625188 C153.728549,225.625188 153.728549,225.625188 153.728549,225.625188 L153.687979,225.593584 L153.656425,225.56198 L153.62487,225.530376 L153.593316,225.489743 L149.310933,218.405941 L149.247824,227.164752 Z" id="Path" fill="#231F20"></path>
                        <path d="M173.37342,216.288475 C173.477938,216.363958 173.545208,216.480632 173.558238,216.60903 C173.570329,216.735416 173.533182,216.861593 173.45456,216.961188 L169.523782,221.886891 L169.523782,227.164752 C169.526979,227.290095 169.47799,227.411124 169.388549,227.498851 C169.300416,227.594122 169.175588,227.646764 169.045959,227.643327 C168.792682,227.628945 168.594775,227.418834 168.595181,227.164752 L168.595181,221.886891 L164.664404,216.961188 C164.584919,216.862042 164.547666,216.735507 164.560725,216.60903 C164.573756,216.480632 164.641025,216.363958 164.745544,216.288475 C164.841956,216.21121 164.965793,216.176939 165.088135,216.193663 C165.216455,216.203269 165.334559,216.267343 165.412694,216.369743 L169.06399,220.952317 L172.706269,216.374257 C172.871721,216.170335 173.16875,216.134396 173.377927,216.29299 L173.37342,216.288475 Z" id="Path" fill="#231F20"></path>
                    </g>
                    <g id="Layer_2" transform="translate(142.445596, 136.348515)" fill="#231F20">
                        <path d="M5.07124352,1.80594059 C5.07124352,1.80594059 2.44321244,5.56681188 5.38227979,8.5059802 C8.32134715,11.4451485 5.68880829,11.6392871 5.68880829,11.6392871 L1.40642487,7.85132673 L0.410207254,5.01148515 L3.24559585,1.57116832 L4.63849741,0.275405941 L5.07124352,1.80594059 Z" id="Path"></path>
                    </g>
                </g>
            </g>
        </g>
    </g>
</svg>